<?xml version="1.0" encoding="UTF-8" standalone="no"?>
<svg
   xmlns:dc="http://purl.org/dc/elements/1.1/"
   xmlns:cc="http://creativecommons.org/ns#"
   xmlns:rdf="http://www.w3.org/1999/02/22-rdf-syntax-ns#"
   xmlns:svg="http://www.w3.org/2000/svg"
   xmlns="http://www.w3.org/2000/svg"
   xmlns:sodipodi="http://sodipodi.sourceforge.net/DTD/sodipodi-0.dtd"
   xmlns:inkscape="http://www.inkscape.org/namespaces/inkscape"
   version="1.0"
   width="1209.000000pt"
   height="423.000000pt"
   viewBox="0 0 1209.000000 423.000000"
   preserveAspectRatio="xMidYMid meet"
   id="svg34"
   sodipodi:docname="cc-by.svg"
   inkscape:version="0.92.1 r15371">
  <defs
     id="defs38" />
  <sodipodi:namedview
     pagecolor="#ffffff"
     bordercolor="#666666"
     borderopacity="1"
     objecttolerance="10"
     gridtolerance="10"
     guidetolerance="10"
     inkscape:pageopacity="0"
     inkscape:pageshadow="2"
     inkscape:window-width="899"
     inkscape:window-height="740"
     id="namedview36"
     showgrid="false"
     inkscape:zoom="3.6390135"
     inkscape:cx="1024.7584"
     inkscape:cy="346.95203"
     inkscape:window-x="400"
     inkscape:window-y="0"
     inkscape:window-maximized="0"
     inkscape:current-layer="svg34" />
  <metadata
     id="metadata2">
Created by potrace 1.13, written by Peter Selinger 2001-2015
<rdf:RDF>
  <cc:Work
     rdf:about="">
    <dc:format>image/svg+xml</dc:format>
    <dc:type
       rdf:resource="http://purl.org/dc/dcmitype/StillImage" />
    <dc:title />
  </cc:Work>
</rdf:RDF>
</metadata>
  <g
     transform="matrix(0.1,0,0,-0.1,-13.187164,389.8918)"
     id="g32"
     style="fill:#000000;stroke:none">
    <path
       d="m 110,4210 c 0,-14 -7,-20 -22,-20 -28,0 -68,-41 -68,-69 0,-12 -4,-21 -10,-21 C 3,4100 0,3410 0,2050 V 0 h 6045 6045 v 2050 c 0,2043 0,2050 -20,2050 -14,0 -20,7 -20,23 0,27 -41,67 -69,67 -14,0 -21,6 -21,20 0,20 -7,20 -5925,20 -5918,0 -5925,0 -5925,-20 z"
       id="path4"
       inkscape:connector-curvature="0"
       style="fill:#000000;stroke:none" />
    <path
       d="m 11889,4100 c 44,-12 69,-43 76,-93 3,-23 4,-652 3,-1397 l -3,-1355 -4167,-3 -4168,-2 -27,-43 c -16,-23 -31,-44 -35,-45 -5,-2 -8,-7 -8,-12 0,-13 -60,-101 -110,-161 -63,-77 -248,-257 -295,-288 -22,-14 -42,-28 -45,-31 -3,-3 -24,-19 -48,-35 -125,-87 -358,-199 -462,-222 -14,-3 -30,-9 -35,-14 -6,-4 -31,-11 -55,-14 -25,-3 -67,-12 -95,-19 -64,-18 -248,-36 -350,-36 -98,0 -320,25 -358,39 -16,6 -40,11 -54,11 -29,0 -152,38 -167,52 -6,4 -18,8 -28,8 -44,0 -300,131 -403,206 -124,90 -172,131 -255,214 -87,87 -240,282 -240,306 0,3 -14,24 -31,45 l -30,39 -197,2 -197,3 -3,1355 c -1,745 0,1374 3,1397 7,48 32,81 72,93 40,12 11669,13 11712,0 z"
       id="path6"
       style="fill:#aab2ab;fill-opacity:1;stroke:none"
       inkscape:connector-curvature="0" />
    <path
       d="m 7550,900 c 51,-26 90,-83 90,-133 2.3589,-87.95689 -28.4945,-111.44509 -71.7428,-139.83196 47.0235,-28.44876 92.5081,-77.2148 94.5276,-178.00509 2.7516,-137.3256 -66.1134,-195.27078 -264.5983,-192.77975 L 7110,260 v 330 330 h 200 c 181,0 205,-2 240,-20 z"
       id="path8"
       inkscape:connector-curvature="0"
       style="fill:#ffffff;stroke:none"
       sodipodi:nodetypes="cccsscccsc" />
    <path
       d="M 7877.5738,918.62234 8016,680 8164.8839,917.48937 8325.0654,920.17929 8090.2904,531.00443 8090,260 h -150 l -0.082,273.48365 -233.8332,387.72943 z"
       id="path10"
       inkscape:connector-curvature="0"
       style="fill:#ffffff;stroke:none"
       sodipodi:nodetypes="cccccccccc" />
    <path
       d="m 7520,3870 c -69,-9 -138,-22 -155,-28 -16,-5 -56,-18 -88,-27 -32,-10 -79,-29 -105,-42 -26,-14 -67,-36 -91,-50 -137,-73 -342,-279 -416,-415 -14,-27 -36,-68 -49,-92 -13,-24 -31,-68 -41,-97 -10,-30 -24,-72 -31,-94 -19,-57 -44,-233 -44,-313 0,-80 25,-260 44,-317 7,-22 22,-65 31,-95 10,-30 28,-71 40,-90 12,-19 32,-57 46,-84 31,-64 164,-222 242,-288 34,-30 75,-64 90,-78 44,-39 253,-150 282,-150 10,0 31,-6 48,-14 135,-57 479,-69 637,-20 30,9 75,22 100,29 127,36 328,164 452,287 120,121 236,307 275,443 42,147 53,221 53,371 0,162 -8,222 -54,381 -14,49 -51,129 -108,235 -35,63 -164,215 -230,269 -29,24 -55,46 -58,49 -14,16 -82,63 -123,85 -116,62 -135,71 -192,89 -33,10 -78,24 -100,31 -36,12 -155,28 -285,39 -25,2 -101,-4 -170,-14 z"
       id="path12"
       inkscape:connector-curvature="0"
       style="fill:#000000;stroke:none" />
    <path
       d="m 7784,3660 c 111,-13 271,-58 306,-85 8,-7 36,-22 61,-34 101,-47 279,-225 352,-351 52,-90 63,-118 104,-265 24,-84 24,-346 0,-430 -33,-121 -43,-151 -56,-175 -8,-14 -27,-50 -44,-80 -49,-91 -144,-199 -242,-275 -27,-22 -52,-42 -55,-45 -14,-14 -170,-93 -220,-110 -202,-69 -424,-69 -630,0 -31,10 -148,67 -198,95 -25,14 -182,147 -182,154 0,3 -19,26 -41,51 -52,58 -98,129 -136,210 -44,93 -61,152 -79,281 -16,106 -16,120 1,233 9,67 24,133 31,148 8,15 14,35 15,45 0,10 10,37 22,60 12,23 33,63 47,90 60,115 258,317 359,364 25,12 53,28 61,34 14,11 34,19 145,56 40,13 189,35 254,38 19,0 75,-4 125,-9 z"
       id="path14"
       inkscape:connector-curvature="0"
       style="fill:#ffffff;stroke:none" />
    <path
       d="M 7396.854,3053.037 C 7350.9286,3008.8009 7362,2937.22 7361,2815.22 c 0,0 -1.0209,-290.3507 3.4339,-290.4142 l 128.4217,-1.8315 L 7495,1965 h 374.9053 l -1.6645,556.8411 127.6725,0.8717 0.2697,291.8122 c 0.1192,128.9999 12.24,195.7394 -27.488,237.695 -39.728,41.9555 -194.6267,28.9327 -300.695,27.78 -95.2243,-1.0348 -225.2207,17.273 -271.146,-26.963 z"
       id="path18"
       inkscape:connector-curvature="0"
       style="fill:#000000;stroke:none"
       sodipodi:nodetypes="zcscccccszsz" />
    <path
       d="m 1970,3819 c -25,-4 -92,-13 -150,-18 -105,-10 -190,-27 -243,-49 -16,-7 -32,-12 -37,-12 -11,0 -58,-20 -165,-71 -85,-40 -209,-120 -261,-166 -17,-15 -55,-48 -85,-73 -63,-53 -89,-79 -137,-140 -20,-25 -41,-49 -47,-55 -13,-12 -125,-161 -142,-190 -25,-42 -113,-225 -113,-236 0,-6 -6,-25 -13,-42 -55,-127 -79,-291 -79,-522 -1,-224 27,-403 78,-522 8,-17 14,-36 14,-42 0,-6 4,-19 9,-29 5,-9 23,-44 38,-77 35,-73 107,-194 131,-221 9,-10 48,-57 87,-104 80,-99 133,-151 230,-228 39,-31 76,-62 84,-70 55,-53 281,-169 411,-210 153,-49 225,-61 415,-67 265,-10 436,15 641,93 123,47 342,174 384,222 3,3 37,31 76,62 83,66 201,186 240,243 14,22 30,42 33,45 13,9 109,175 139,240 16,36 38,90 47,120 10,30 22,59 26,64 5,6 9,22 9,37 0,15 5,40 11,56 13,33 42,291 43,383 0,93 -23,314 -40,385 -30,118 -66,221 -109,310 -48,100 -150,258 -210,326 -63,72 -227,228 -270,257 -22,15 -42,30 -45,33 -11,12 -179,109 -226,130 -162,73 -279,106 -429,120 -55,5 -127,13 -161,19 -70,11 -120,11 -184,-1 z"
       id="path20"
       inkscape:connector-curvature="0"
       style="fill:#000000;stroke:none" />
    <path
       d="m 2275,3520 c 72,-12 129,-24 170,-38 17,-6 54,-18 84,-28 29,-9 72,-27 95,-40 22,-13 64,-35 91,-49 50,-25 72,-41 202,-147 79,-63 231,-247 269,-323 14,-27 36,-69 48,-91 26,-47 58,-139 93,-264 37,-135 33,-481 -7,-615 -12,-38 -25,-86 -29,-105 -8,-33 -40,-103 -101,-218 -27,-51 -56,-92 -96,-138 -11,-12 -39,-45 -63,-73 -58,-67 -237,-216 -301,-250 -130,-68 -200,-100 -255,-116 -33,-10 -75,-24 -93,-31 -18,-8 -49,-14 -70,-14 -20,0 -82,-7 -137,-15 -88,-12 -116,-12 -230,1 -121,14 -157,22 -290,61 -48,15 -136,55 -239,112 -130,71 -379,318 -453,451 -75,133 -116,226 -133,300 -4,19 -13,49 -18,65 -6,17 -17,89 -25,160 -13,114 -13,146 0,255 7,69 20,145 27,170 40,139 52,171 84,235 99,201 198,329 352,458 47,40 92,78 100,86 8,8 28,20 45,28 16,7 48,24 70,36 104,59 167,87 195,87 11,0 34,6 52,14 110,47 381,64 563,36 z"
       id="path22"
       inkscape:connector-curvature="0"
       style="fill:#ffffff;stroke:none" />
    <path
       d="m 2445,2721 c -112,-16 -256,-122 -301,-221 -45,-98 -54,-143 -54,-255 0,-161 37,-263 129,-356 62,-62 96,-81 191,-111 53,-17 83,-19 160,-16 93,5 110,10 199,51 77.1688,39.5866 136.237,105.4525 161.7156,140.1422 15.4194,20.9939 19.1466,40.7111 19.1466,40.7111 -0.3767,3.3417 -186.4444,102.0089 -186.4444,102.0089 2.0311,-3.4865 -12.6837,-27.2004 -21.4178,-39.8622 -30.8332,-44.6989 -90,-86 -170,-86 -60,0 -74,4 -108,29 -50,36 -110.096,157.8578 -110.5866,243.3643 C 2352.8961,2332.5233 2376,2433 2448,2487 c 41,30 126,46 171,32 45,-15 78.443,-46.9956 101,-75 9.974,-12.3826 23.7111,-30.7156 23.7111,-30.7156 0,0 196.9496,97.1933 198.2132,100.4755 0,0 -19.0976,40.9822 -59.9243,84.2401 -56,56 -86,74 -167,106 -46,17 -197,27 -270,17 z"
       id="path26"
       inkscape:connector-curvature="0"
       style="fill:#000000;stroke:none"
       sodipodi:nodetypes="ccsccccssssscsccscsccc" />
    <path
       d="M 7259.7253,652.89013 7360.0438,652 c 92.6154,-0.36266 128.5204,25.08023 127.9562,73 -0.589,50.0243 -30.3515,75 -130,75 h -99 z"
       id="path28"
       inkscape:connector-curvature="0"
       style="fill:#000000;stroke:none"
       sodipodi:nodetypes="ccsscc" />
    <path
       d="m 7258.6882,546.19683 0.4584,-174.11493 120.0661,-0.36063 C 7468.819,371.3276 7512.3276,401 7512.3276,459 c 0,51.7543 -41.5258,86.96834 -139.0358,87.78733 z"
       id="path30"
       inkscape:connector-curvature="0"
       style="fill:#000000;stroke:none"
       sodipodi:nodetypes="cccscc" />
  </g>
  <path
     d="m 135.92711,119.23077 c -11.2,1.6 -25.6,12.2 -30.1,22.1 -4.5,9.8 -5.4,14.3 -5.4,25.5 0,16.1 3.7,26.3 12.9,35.6 6.2,6.2 9.6,8.1 19.1,11.1 5.3,1.7 8.3,1.9 16,1.6 9.3,-0.5 11,-1 19.9,-5.1 7.71688,-3.95866 13.6237,-10.54525 16.17156,-14.01422 1.54194,-2.09939 1.91466,-4.07111 1.91466,-4.07111 -0.0377,-0.33417 -18.64444,-10.20089 -18.64444,-10.20089 0.20311,0.34865 -1.26837,2.72004 -2.14178,3.98622 -3.08332,4.46989 -9,8.6 -17,8.6 -6,0 -7.4,-0.4 -10.8,-2.9 -5,-3.6 -11.0096,-15.78578 -11.05866,-24.33643 -0.0517,-9.0159 2.25866,-19.06357 9.45866,-24.46357 4.1,-3 12.6,-4.6 17.1,-3.2 4.5,1.5 7.8443,4.69956 10.1,7.5 0.9974,1.23826 2.37111,3.07156 2.37111,3.07156 0,0 19.69496,-9.71933 19.82132,-10.04755 0,0 -1.90976,-4.09822 -5.99243,-8.42401 -5.6,-5.6 -8.6,-7.4 -16.7,-10.6 -4.6,-1.7 -19.7,-2.7 -27,-1.7 z"
     id="path26-3"
     inkscape:connector-curvature="0"
     style="fill:#000000;stroke:none;stroke-width:0.09999999"
     sodipodi:nodetypes="ccsccccssssscsccscsccc" />
  <ellipse
     style="opacity:1;fill:#000000;fill-opacity:1;fill-rule:evenodd;stroke:none;stroke-width:1.5;stroke-linejoin:round;stroke-miterlimit:4;stroke-dasharray:none;stroke-opacity:1"
     id="path4587"
     cx="755.04663"
     cy="59.852127"
     rx="15.354437"
     ry="15.663586" />
</svg>
