<?xml version="1.0" encoding="UTF-8" standalone="no"?>
<svg
   xmlns:dc="http://purl.org/dc/elements/1.1/"
   xmlns:cc="http://creativecommons.org/ns#"
   xmlns:rdf="http://www.w3.org/1999/02/22-rdf-syntax-ns#"
   xmlns:svg="http://www.w3.org/2000/svg"
   xmlns="http://www.w3.org/2000/svg"
   xmlns:sodipodi="http://sodipodi.sourceforge.net/DTD/sodipodi-0.dtd"
   xmlns:inkscape="http://www.inkscape.org/namespaces/inkscape"
   version="1.0"
   width="1211.6219pt"
   height="423.12976pt"
   viewBox="0 0 1211.6219 423.12976"
   preserveAspectRatio="xMidYMid meet"
   id="svg34"
   sodipodi:docname="cc-by.svg"
   inkscape:version="0.92.3 (2405546, 2018-03-11)">
  <defs
     id="defs38" />
  <sodipodi:namedview
     pagecolor="#ffffff"
     bordercolor="#666666"
     borderopacity="1"
     objecttolerance="10"
     gridtolerance="10"
     guidetolerance="10"
     inkscape:pageopacity="0"
     inkscape:pageshadow="2"
     inkscape:window-width="1167"
     inkscape:window-height="740"
     id="namedview36"
     showgrid="false"
     inkscape:zoom="2.4845241"
     inkscape:cx="1086.5908"
     inkscape:cy="446.00349"
     inkscape:window-x="132"
     inkscape:window-y="0"
     inkscape:window-maximized="0"
     inkscape:current-layer="svg34" />
  <metadata
     id="metadata2">
Created by potrace 1.13, written by Peter Selinger 2001-2015
<rdf:RDF>
  <cc:Work
     rdf:about="">
    <dc:format>image/svg+xml</dc:format>
    <dc:type
       rdf:resource="http://purl.org/dc/dcmitype/StillImage" />
    <dc:title />
  </cc:Work>
</rdf:RDF>
</metadata>
  <rect
     style="opacity:1;fill:#030000;fill-opacity:1;fill-rule:evenodd;stroke:none;stroke-width:30.03176117;stroke-linejoin:round;stroke-miterlimit:4;stroke-dasharray:none;stroke-dashoffset:0;stroke-opacity:1"
     id="rect868"
     width="1211.6219"
     height="423.12976"
     x="0"
     y="0"
     ry="0" />
  <path
     inkscape:connector-curvature="0"
     style="fill:#aab2ab;fill-opacity:1;stroke:none;stroke-width:0.1"
     id="path6"
     d="m 1191.4873,13.064619 c 4.4,1.2 6.9,4.3 7.6,9.3 0.3,2.3 0.4,65.2 0.3,139.700001 l -0.3,135.5 -416.69996,0.3 -416.8,0.2 -2.7,4.3 c -1.6,2.3 -3.1,4.4 -3.5,4.5 -0.5,0.2 -0.8,0.7 -0.8,1.2 0,1.3 -6,10.1 -11,16.1 -6.3,7.7 -24.8,25.7 -29.5,28.8 -2.2,1.4 -4.2,2.8 -4.5,3.1 -0.3,0.3 -2.4,1.9 -4.8,3.5 -12.5,8.7 -35.8,19.9 -46.2,22.2 -1.4,0.3 -3,0.9 -3.5,1.4 -0.6,0.4 -3.1,1.1 -5.5,1.4 -2.5,0.3 -6.7,1.2 -9.5,1.9 -6.4,1.8 -24.8,3.6 -35,3.6 -9.8,0 -32,-2.5 -35.8,-3.9 -1.6,-0.6 -4,-1.1 -5.4,-1.1 -2.9,0 -15.2,-3.8 -16.7,-5.2 -0.6,-0.4 -1.8,-0.8 -2.8,-0.8 -4.4,0 -30,-13.1 -40.3,-20.6 -12.400003,-9 -17.200003,-13.1 -25.500003,-21.4 -8.7,-8.7 -24,-28.2 -24,-30.6 0,-0.3 -1.4,-2.4 -3.1,-4.5 l -3,-3.9 -19.7,-0.2 -19.7,-0.3 -0.3,-135.5 c -0.1,-74.500001 0,-137.400001 0.3,-139.700001 0.7,-4.8 3.2,-8.1 7.2,-9.3 4,-1.2 1166.899963,-1.3 1171.199963,0 z" />
  <path
     sodipodi:nodetypes="cccsscccsc"
     style="fill:#ffffff;stroke:none;stroke-width:0.1"
     inkscape:connector-curvature="0"
     id="path8"
     d="m 757.58734,333.06462 c 5.1,2.6 9,8.3 9,13.3 0.23589,8.79569 -2.84945,11.14451 -7.17428,13.9832 4.70235,2.84487 9.25081,7.72148 9.45276,17.8005 0.27516,13.73256 -6.61134,19.52708 -26.45983,19.27798 l -28.81865,-0.36168 v -33 -33 h 20 c 18.1,0 20.5,0.2 24,2 z" />
  <path
     sodipodi:nodetypes="cccccccccc"
     style="fill:#ffffff;stroke:none;stroke-width:0.1"
     inkscape:connector-curvature="0"
     id="path10"
     d="m 790.34472,331.20239 13.84262,23.86223 14.88839,-23.74894 16.01815,-0.26899 -23.4775,38.91749 -0.029,27.10044 h -15 l -0.008,-27.34837 -23.38332,-38.77294 z" />
  <path
     style="fill:#ffffff;stroke:none;stroke-width:0.1"
     inkscape:connector-curvature="0"
     id="path14"
     d="m 780.98734,57.064619 c 11.1,1.3 27.1,5.8 30.6,8.5 0.8,0.7 3.6,2.2 6.1,3.4 10.1,4.7 27.9,22.5 35.2,35.100001 5.2,9 6.3,11.8 10.4,26.5 2.4,8.4 2.4,34.6 0,43 -3.3,12.1 -4.3,15.1 -5.6,17.5 -0.8,1.4 -2.7,5 -4.4,8 -4.9,9.1 -14.4,19.9 -24.2,27.5 -2.7,2.2 -5.2,4.2 -5.5,4.5 -1.4,1.4 -17,9.3 -22,11 -20.2,6.9 -42.4,6.9 -63,0 -3.1,-1 -14.8,-6.7 -19.8,-9.5 -2.5,-1.4 -18.2,-14.7 -18.2,-15.4 0,-0.3 -1.9,-2.6 -4.1,-5.1 -5.2,-5.8 -9.8,-12.9 -13.6,-21 -4.4,-9.3 -6.1,-15.2 -7.9,-28.1 -1.6,-10.6 -1.6,-12 0.1,-23.3 0.9,-6.7 2.4,-13.3 3.1,-14.8 0.8,-1.5 1.4,-3.5 1.5,-4.5 0,-1 1,-3.7 2.2,-6 1.2,-2.3 3.3,-6.3 4.7,-9 6,-11.500001 25.8,-31.700001 35.9,-36.400001 2.5,-1.2 5.3,-2.8 6.1,-3.4 1.4,-1.1 3.4,-1.9 14.5,-5.6 4,-1.3 18.9,-3.5 25.4,-3.8 1.9,0 7.5,0.4 12.5,0.9 z" />
  <path
     sodipodi:nodetypes="ccsscc"
     style="fill:#000000;stroke:none;stroke-width:0.1"
     inkscape:connector-curvature="0"
     id="path28"
     d="m 728.55987,357.77561 10.03185,0.089 c 9.26154,0.0363 12.85204,-2.50802 12.79562,-7.3 -0.0589,-5.00243 -3.03515,-7.5 -13,-7.5 h -9.9 z" />
  <path
     sodipodi:nodetypes="cccscc"
     style="fill:#000000;stroke:none;stroke-width:0.1"
     inkscape:connector-curvature="0"
     id="path30"
     d="m 728.45616,368.44494 0.0458,17.41149 12.00661,0.0361 c 8.96063,0.0394 13.31149,-2.92787 13.31149,-8.72787 0,-5.17543 -4.15258,-8.69683 -13.90358,-8.77873 z" />
  <ellipse
     style="opacity:1;fill:#ffffff;fill-opacity:1;fill-rule:evenodd;stroke:#000000;stroke-width:30.26408195;stroke-linejoin:round;stroke-miterlimit:4;stroke-dasharray:none;stroke-dashoffset:0;stroke-opacity:1"
     id="path826"
     cx="209.42136"
     cy="198.7814"
     rx="147.08424"
     ry="142.31396" />
  <path
     sodipodi:nodetypes="ccsccccssssscsccscsccc"
     style="fill:#000000;stroke:none;stroke-width:0.1"
     inkscape:connector-curvature="0"
     id="path26"
     d="m 247.08734,150.96462 c -11.2,1.6 -25.6,12.2 -30.1,22.1 -4.5,9.8 -5.4,14.3 -5.4,25.5 0,16.1 3.7,26.3 12.9,35.6 6.2,6.2 9.6,8.1 19.1,11.1 5.3,1.7 8.3,1.9 16,1.6 9.3,-0.5 11,-1 19.9,-5.1 7.71688,-3.95866 13.6237,-10.54525 16.17156,-14.01422 1.54194,-2.09939 1.91466,-4.07111 1.91466,-4.07111 -0.0377,-0.33417 -18.64444,-10.20089 -18.64444,-10.20089 0.20311,0.34865 -1.26837,2.72004 -2.14178,3.98622 -3.08332,4.46989 -9,8.6 -17,8.6 -6,0 -7.4,-0.4 -10.8,-2.9 -5,-3.6 -11.0096,-15.78578 -11.05866,-24.33643 -0.0517,-9.0159 2.25866,-19.06357 9.45866,-24.46357 4.1,-3 12.6,-4.6 17.1,-3.2 4.5,1.5 7.8443,4.69956 10.1,7.5 0.9974,1.23826 2.37111,3.07156 2.37111,3.07156 0,0 19.69496,-9.71933 19.82132,-10.04755 0,0 -1.90976,-4.09822 -5.99243,-8.42401 -5.6,-5.6 -8.6,-7.4 -16.7,-10.6 -4.6,-1.7 -19.7,-2.7 -27,-1.7 z" />
  <ellipse
     style="opacity:1;fill:#ffffff;fill-opacity:1;fill-rule:evenodd;stroke:#000000;stroke-width:22.79470253;stroke-linejoin:round;stroke-miterlimit:4;stroke-dasharray:none;stroke-dashoffset:0;stroke-opacity:1"
     id="path826-4"
     cx="770.47955"
     cy="151.50471"
     rx="110.78287"
     ry="107.18992" />
  <ellipse
     style="opacity:1;fill:#000000;fill-opacity:1;fill-rule:evenodd;stroke:none;stroke-width:1.5;stroke-linejoin:round;stroke-miterlimit:4;stroke-dasharray:none;stroke-opacity:1"
     id="path4587"
     cx="770.82111"
     cy="93.024948"
     rx="15.354437"
     ry="15.663586" />
  <path
     sodipodi:nodetypes="ccsccccssssscsccscsccc"
     style="fill:#000000;stroke:none;stroke-width:0.09999999"
     inkscape:connector-curvature="0"
     id="path26-31"
     d="m 151.70161,152.40359 c -11.2,1.6 -25.6,12.2 -30.1,22.1 -4.5,9.8 -5.4,14.3 -5.4,25.49999 0,16.1 3.7,26.3 12.9,35.6 6.2,6.20001 9.6,8.1 19.1,11.1 5.3,1.70001 8.3,1.9 16,1.6 9.3,-0.49999 11,-1 19.9,-5.1 7.71687,-3.95866 13.62369,-10.54525 16.17155,-14.01421 1.54194,-2.0994 1.91467,-4.07112 1.91467,-4.07112 -0.0377,-0.33417 -18.64444,-10.20089 -18.64444,-10.20089 0.20311,0.34865 -1.26837,2.72004 -2.14178,3.98622 -3.08332,4.46989 -9,8.6 -17,8.6 -6,0 -7.4,-0.39999 -10.8,-2.9 -5,-3.6 -11.0096,-15.78578 -11.05866,-24.33643 -0.0517,-9.01589 2.25866,-19.06356 9.45866,-24.46356 4.1,-3 12.6,-4.6 17.1,-3.2 4.5,1.5 7.8443,4.69956 10.1,7.5 0.9974,1.23825 2.37111,3.07155 2.37111,3.07155 0,0 19.69495,-9.71932 19.82131,-10.04754 0,0 -1.90975,-4.09822 -5.99242,-8.42401 -5.6,-5.6 -8.6,-7.4 -16.7,-10.6 -4.6,-1.7 -19.7,-2.7 -27,-1.7 z" />
  <path
     sodipodi:nodetypes="zcscccccszsz"
     style="fill:#000000;stroke:none;stroke-width:0.1"
     inkscape:connector-curvature="0"
     id="path18"
     d="m 742.27274,117.76092 c -4.59254,4.42361 -3.4854,11.5817 -3.5854,23.7817 0,0 -0.10209,29.03507 0.34339,29.04142 l 12.84217,0.18315 0.21444,55.79743 h 37.49053 l -0.16645,-55.68411 12.76725,-0.0872 0.027,-29.18122 c 0.0119,-12.89999 1.224,-19.57394 -2.7488,-23.7695 -3.9728,-4.19555 -19.46267,-2.89327 -30.0695,-2.778 -9.52243,0.10348 -22.52207,-1.7273 -27.1146,2.6963 z" />
</svg>
