<?xml version="1.0" encoding="UTF-8" standalone="no"?>
<svg
   xmlns:dc="http://purl.org/dc/elements/1.1/"
   xmlns:cc="http://creativecommons.org/ns#"
   xmlns:rdf="http://www.w3.org/1999/02/22-rdf-syntax-ns#"
   xmlns:svg="http://www.w3.org/2000/svg"
   xmlns="http://www.w3.org/2000/svg"
   xmlns:sodipodi="http://sodipodi.sourceforge.net/DTD/sodipodi-0.dtd"
   xmlns:inkscape="http://www.inkscape.org/namespaces/inkscape"
   version="1.0"
   width="581.77057pt"
   height="440.32745pt"
   viewBox="0 0 581.77057 440.32744"
   preserveAspectRatio="xMidYMid meet"
   id="svg8"
   sodipodi:docname="perspective-chair.svg"
   inkscape:version="0.92.2 (5c3e80d, 2017-08-06)">
  <defs
     id="defs12" />
  <sodipodi:namedview
     pagecolor="#ffffff"
     bordercolor="#666666"
     borderopacity="1"
     objecttolerance="10"
     gridtolerance="10"
     guidetolerance="10"
     inkscape:pageopacity="0"
     inkscape:pageshadow="2"
     inkscape:window-width="1216"
     inkscape:window-height="740"
     id="namedview10"
     showgrid="false"
     inkscape:zoom="0.62910223"
     inkscape:cx="289.21661"
     inkscape:cy="366.60423"
     inkscape:window-x="135"
     inkscape:window-y="0"
     inkscape:window-maximized="0"
     inkscape:current-layer="svg8" />
  <metadata
     id="metadata2">
Created by potrace 1.14, written by Peter Selinger 2001-2017
<rdf:RDF>
  <cc:Work
     rdf:about="">
    <dc:format>image/svg+xml</dc:format>
    <dc:type
       rdf:resource="http://purl.org/dc/dcmitype/StillImage" />
    <dc:title></dc:title>
  </cc:Work>
</rdf:RDF>
</metadata>
  <g
     inkscape:groupmode="layer"
     id="layer2"
     inkscape:label="Layer 2"
     transform="translate(5.7579558,9.2215397)">
    <path
       style="opacity:1;fill:#e0e0e0;fill-opacity:1;fill-rule:evenodd;stroke:none;stroke-width:1.13115573;stroke-linejoin:round;stroke-miterlimit:4;stroke-dasharray:none;stroke-opacity:1"
       d="m 400.28613,119.78906 c -3.14399,1.78607 -1.29536,6.71388 -2.09744,9.77244 -0.46624,14.89243 -1.31564,29.95546 -0.95492,44.75753 9.41315,5.53635 20.67951,8.25987 31.21556,11.51001 16.57798,4.05028 33.62437,6.58464 50.68055,7.25348 18.23866,-0.54677 36.99085,0.8955 54.71191,-4.26269 3.91418,-1.80064 -0.58047,-6.35268 -1.00634,-9.03663 -7.2539,-16.41338 -13.98504,-33.1506 -22.14111,-49.11474 -4.22597,-3.37134 -10.13761,0.175 -14.88575,0.28271 -17.10102,2.94742 -34.67415,2.5847 -51.95978,0.62274 -15.0061,-1.6668 -28.95915,-7.37543 -43.25506,-11.77899 l -0.25342,-0.009 z"
       id="path3841"
       inkscape:connector-curvature="0" />
    <path
       style="opacity:1;fill:#e0e0e0;fill-opacity:1;fill-rule:evenodd;stroke:none;stroke-width:1.13115573;stroke-linejoin:round;stroke-miterlimit:4;stroke-dasharray:none;stroke-opacity:1"
       d="m 415.01954,5.3027344 c -3.58771,0.9903315 -1.97759,6.4134736 -3.16408,9.1904296 -3.61968,25.759688 -7.02893,51.70556 -9.49093,77.516978 3.33808,2.316293 8.74074,0.95652 12.9073,1.700716 33.3727,1.166962 66.6367,4.597792 99.73354,9.170972 4.00829,-1.00211 3.1862,-6.765355 4.5283,-9.869162 5.40112,-26.084213 11.55062,-52.048821 16.23439,-78.263156 -1.24412,-3.521058 -6.59078,-1.539028 -9.48632,-2.538574 C 489.22196,9.567276 452.13819,6.9229802 415.01954,5.3027344 Z"
       id="path3843"
       inkscape:connector-curvature="0" />
    <path
       style="opacity:1;fill:#e0e0e0;fill-opacity:1;fill-rule:evenodd;stroke:none;stroke-width:1.13115573;stroke-linejoin:round;stroke-miterlimit:4;stroke-dasharray:none;stroke-opacity:1"
       d="m 382.33008,94.93506 c -3.29582,1.60209 -1.64533,6.7053 -2.70401,9.76544 -6.48477,57.75254 -12.71385,115.53932 -18.80869,173.3327 0.28274,4.36451 5.94713,2.94957 8.93555,3.48634 3.98504,-1.3528 2.64344,-7.03907 3.65039,-10.26563 6.23374,-54.47087 13.99226,-108.81626 19.1311,-163.40514 -0.23588,-3.65156 2.06543,-7.84356 0.43335,-11.18373 -3.08272,-1.635345 -7.22029,-1.321238 -10.63769,-1.72998 z"
       id="path3845"
       inkscape:connector-curvature="0" />
    <path
       style="opacity:1;fill:#e0e0e0;fill-opacity:1;fill-rule:evenodd;stroke:none;stroke-width:1.13115573;stroke-linejoin:round;stroke-miterlimit:4;stroke-dasharray:none;stroke-opacity:1"
       d="m 385.39014,77.831542 c -4.29768,0.246855 -2.72285,6.298816 -3.70316,9.134978 0.052,2.557942 -1.99777,7.58346 2.01858,7.93485 3.27985,0.211252 9.41781,3.063383 10.56006,-1.845705 0.28773,-4.490663 1.87584,-9.413392 0.52442,-13.735837 -2.70954,-1.596203 -6.33466,-1.350938 -9.3999,-1.488286 z"
       id="path3847"
       inkscape:connector-curvature="0" />
    <path
       style="opacity:1;fill:#e0e0e0;fill-opacity:1;fill-rule:evenodd;stroke:none;stroke-width:1.13115573;stroke-linejoin:round;stroke-miterlimit:4;stroke-dasharray:none;stroke-opacity:1"
       d="m 409.74463,1.3461914 c -5.07913,-0.1631104 -3.43571,6.3822488 -4.4149,9.5531016 -4.69704,40.004876 -10.34158,79.932945 -13.42104,120.106077 -0.80628,16.76995 -1.43345,33.5662 -3.06885,50.23682 1.57228,3.63658 8.06186,1.57143 7.3169,-2.49903 2.52037,-27.71963 0.87144,-55.67646 5.56201,-83.204582 3.46546,-30.098522 7.30676,-60.149595 11.28516,-90.1523476 0.38579,-2.232335 -0.6797,-4.41481255 -3.25928,-4.040039 z"
       id="path3851"
       inkscape:connector-curvature="0" />
    <path
       style="opacity:1;fill:#e0e0e0;fill-opacity:1;fill-rule:evenodd;stroke:none;stroke-width:1.13115573;stroke-linejoin:round;stroke-miterlimit:4;stroke-dasharray:none;stroke-opacity:1"
       d="m 539.02295,9.8393558 c -4.3613,0.131301 -2.5492,5.8107882 -3.84676,8.5024182 -6.94686,35.307266 -15.44128,70.576366 -20.87102,106.254906 -2.08098,12.96367 5.61977,24.36682 10.11124,35.90795 3.70798,9.28134 8.86408,18.10478 11.61533,27.68678 1.21241,3.16698 -2.77466,7.41769 0.5625,9.68407 3.07462,1.73707 6.33238,-0.86499 6.18164,-4.18359 1.80673,-10.57838 -5.68169,-19.52661 -9.19866,-28.91105 -4.395,-9.91774 -9.72599,-19.49941 -13.2867,-29.71932 -1.77465,-15.29095 4.01622,-29.91966 6.58582,-44.781455 5.45207,-25.676765 11.61376,-51.234293 16.22766,-77.071569 0.43332,-2.544831 -1.78776,-3.8197725 -4.08105,-3.3691402 z"
       id="path3853"
       inkscape:connector-curvature="0" />
    <path
       style="opacity:1;fill:#e0e0e0;fill-opacity:1;fill-rule:evenodd;stroke:none;stroke-width:1.13115573;stroke-linejoin:round;stroke-miterlimit:4;stroke-dasharray:none;stroke-opacity:1"
       d="m 541.604,92.935545 c -3.40875,4.304955 -4.52473,10.310675 -7.02233,15.255275 -0.77835,2.62766 -4.39702,7.17172 -0.19348,8.44004 5.85069,6.64647 11.98286,13.44324 16.47802,20.95752 3.85623,1.27406 3.18321,-4.90817 4.49268,-7.0503 1.34772,-6.88361 5.05363,-13.63957 4.67578,-20.72314 -4.88912,-6.29458 -10.98926,-11.838668 -17.22803,-16.803225 -0.37336,-0.17334 -0.80303,-0.21099 -1.20264,-0.07617 z"
       id="path3855"
       inkscape:connector-curvature="0" />
    <path
       style="opacity:1;fill:#e0e0e0;fill-opacity:1;fill-rule:evenodd;stroke:none;stroke-width:1.13115573;stroke-linejoin:round;stroke-miterlimit:4;stroke-dasharray:none;stroke-opacity:1"
       d="m 544.64356,91.565917 c -0.58794,4.248653 5.72193,6.652455 7.94659,10.091573 4.19165,3.30737 7.00473,9.64509 13.18964,8.93674 1.98003,0.0601 7.28873,2.00953 6.41894,-1.87792 -5.02058,-5.95192 -11.01706,-11.255355 -17.30127,-15.855472 -3.21931,-1.025941 -6.95717,-1.951778 -10.2539,-1.294921 z"
       id="path3857"
       inkscape:connector-curvature="0" />
    <path
       style="opacity:1;fill:#e0e0e0;fill-opacity:1;fill-rule:evenodd;stroke:none;stroke-width:1.13115573;stroke-linejoin:round;stroke-miterlimit:4;stroke-dasharray:none;stroke-opacity:1"
       d="m 562.57617,110.09033 c -3.63383,1.47623 -2.69681,6.7805 -4.27611,9.78891 -5.46944,20.24297 -11.45328,40.41209 -16.844,60.62027 1.41023,5.93233 3.25788,13.02592 -1.07813,18.22705 -4.14605,0.6153 -3.7138,6.44471 -5.22178,9.41375 -8.46789,30.0924 -17.03942,60.18997 -24.24063,90.60871 0.92313,3.70715 6.22857,2.72682 9.18898,2.90625 4.06398,-1.36253 2.91515,-7.34265 4.78472,-10.5105 17.37307,-58.98455 34.05345,-118.20004 49.66791,-177.66186 -0.73712,-3.86261 -6.33408,-2.08371 -8.91651,-3.02344 -1.03165,-0.021 -2.03351,-0.43267 -3.06445,-0.36914 z"
       id="path3859"
       inkscape:connector-curvature="0" />
    <path
       style="opacity:1;fill:#e0e0e0;fill-opacity:1;fill-rule:evenodd;stroke:none;stroke-width:1.13115573;stroke-linejoin:round;stroke-miterlimit:4;stroke-dasharray:none;stroke-opacity:1"
       d="m 534.52881,118.28613 c -3.19808,2.85533 -3.65271,8.08034 -5.75642,11.82049 -1.30592,4.80268 -5.18978,9.46783 -4.7327,14.3904 1.8991,3.48771 2.86852,7.70599 5.55552,10.67534 3.55625,0.27217 3.42873,-5.07719 5.1342,-7.28685 2.69297,-7.0857 6.55607,-13.9951 8.29549,-21.27028 -2.70739,-2.44506 -4.64273,-7.55629 -8.49609,-8.3291 z"
       id="path3861"
       inkscape:connector-curvature="0" />
    <path
       style="opacity:1;fill:#e0e0e0;fill-opacity:1;fill-rule:evenodd;stroke:none;stroke-width:1.13115573;stroke-linejoin:round;stroke-miterlimit:4;stroke-dasharray:none;stroke-opacity:1"
       d="m 509.85791,197.17822 c -3.60626,0.56264 -8.02867,-0.52746 -11.05664,1.52197 -1.26185,2.06269 -2.9701,6.67387 0.93457,6.98145 3.7005,0.0802 10.02969,2.30181 11.30331,-2.89746 0.90559,-1.90561 2.81623,-6.01149 -1.18124,-5.60596 z"
       id="path3863"
       inkscape:connector-curvature="0" />
    <path
       style="opacity:1;fill:#e0e0e0;fill-opacity:1;fill-rule:evenodd;stroke:none;stroke-width:1.13115573;stroke-linejoin:round;stroke-miterlimit:4;stroke-dasharray:none;stroke-opacity:1"
       d="m 382.98779,195.65479 c -0.90494,2.57752 -1.48551,5.75626 -0.8789,8.50488 5.63014,2.30526 12.35414,1.70094 18.3821,2.91325 42.48489,4.96511 84.9608,10.07351 127.46653,14.82161 3.34296,-1.07558 3.66512,-5.8399 4.18652,-8.80518 -3.63665,-2.6386 -9.27857,-1.40526 -13.67965,-2.53752 -44.75002,-5.15069 -89.56222,-9.84442 -134.27835,-15.21931 l -0.72427,0.19479 z"
       id="path3865"
       inkscape:connector-curvature="0" />
    <path
       style="opacity:1;fill:#e0e0e0;fill-opacity:1;fill-rule:evenodd;stroke:none;stroke-width:0.39992392;stroke-linejoin:round;stroke-miterlimit:4;stroke-dasharray:none;stroke-opacity:1"
       d="m 397.34033,175.1294 c -2.82178,2.37821 0.20398,5.25101 2.88721,5.71289 18.96585,7.79713 38.96675,13.26137 59.43868,15.05776 24.22583,2.61377 49.23185,3.3727 73.04639,-1.88743 2.15944,-1.1839 2.2383,-5.91941 -1.09298,-4.67864 -20.09184,4.32932 -41.12667,4.13495 -61.62598,3.01758 -21.32151,-1.93952 -42.76512,-5.43452 -62.65136,-13.57617 -3.4247,-0.97387 -6.54345,-3.23623 -10.00196,-3.64599 z"
       id="path3869"
       inkscape:connector-curvature="0" />
    <path
       style="opacity:1;fill:#e0e0e0;fill-opacity:1;fill-rule:evenodd;stroke:none;stroke-width:0.39992392;stroke-linejoin:round;stroke-miterlimit:4;stroke-dasharray:none;stroke-opacity:1"
       d="m 534.60059,197.49463 c -3.11561,1.58437 -2.40092,6.48844 -3.87009,9.39135 -1.23927,2.06518 -1.16779,6.16779 2.18552,5.42554 3.29264,-1.62017 2.40264,-6.68976 3.96533,-9.62548 1.04907,-2.46089 1.28942,-5.45287 -2.28076,-5.19141 z"
       id="path3871"
       inkscape:connector-curvature="0" />
    <path
       style="opacity:1;fill:#e0e0e0;fill-opacity:1;fill-rule:evenodd;stroke:none;stroke-width:0.39992392;stroke-linejoin:round;stroke-miterlimit:4;stroke-dasharray:none;stroke-opacity:1"
       d="m 530.17822,200.12842 c -1.36037,2.33238 -4.0087,5.37926 -3.02343,8.17089 1.71066,2.44566 4.35959,0.0702 4.22754,-2.2705 0.29208,-1.77446 2.8161,-6.84133 -1.20411,-5.90039 z"
       id="path3873"
       inkscape:connector-curvature="0" />
    <path
       style="opacity:1;fill:#e0e0e0;fill-opacity:1;fill-rule:evenodd;stroke:none;stroke-width:0.39992392;stroke-linejoin:round;stroke-miterlimit:4;stroke-dasharray:none;stroke-opacity:1"
       d="m 386.23975,193.292 c -1.73111,3.57239 3.97629,2.87381 6.0079,3.31069 45.0737,5.02432 90.1417,10.30946 135.2294,15.09652 3.22773,-1.26918 -0.0817,-4.14191 -2.34294,-3.45444 -45.89427,-5.26551 -91.79829,-10.47059 -137.73128,-15.38491 l -0.70304,0.26121 z"
       id="path3881"
       inkscape:connector-curvature="0" />
    <path
       style="opacity:1;fill:#e0e0e0;fill-opacity:1;fill-rule:evenodd;stroke:none;stroke-width:0.39992392;stroke-linejoin:round;stroke-miterlimit:4;stroke-dasharray:none;stroke-opacity:1"
       d="m 389.03467,150.19336 c -2.73626,2.95502 -1.35951,8.15317 -2.45204,11.954 -1.03724,10.84342 -3.01833,21.667 -3.66955,32.48935 1.91514,3.09043 4.3759,-1.13082 3.61747,-3.32683 1.42189,-13.18201 3.82233,-26.33367 4.67649,-39.53596 -0.13303,-1.01714 -1.08793,-1.91927 -2.17237,-1.58056 z"
       id="path3883"
       inkscape:connector-curvature="0" />
    <path
       style="opacity:1;fill:#e0e0e0;fill-opacity:1;fill-rule:evenodd;stroke:none;stroke-width:0.39992392;stroke-linejoin:round;stroke-miterlimit:4;stroke-dasharray:none;stroke-opacity:1"
       d="m 524.36425,221.3833 c -3.81671,1.58988 0.85243,3.94793 1.89844,5.65576 -5.82835,22.84175 -12.6243,45.50759 -17.89013,68.46094 1.09877,3.22222 3.95707,0.0736 3.71631,-2.07715 6.12058,-23.3104 12.73584,-46.52859 18.62109,-69.87891 -0.4526,-2.67252 -4.42228,-1.70973 -6.34571,-2.16064 z"
       id="path3885"
       inkscape:connector-curvature="0" />
    <path
       style="opacity:1;fill:#e0e0e0;fill-opacity:1;fill-rule:evenodd;stroke:none;stroke-width:0.19996196;stroke-linejoin:round;stroke-miterlimit:4;stroke-dasharray:none;stroke-opacity:1"
       d="m 556.53955,117.55664 c -2.69469,3.66779 -2.57423,9.05389 -4.35554,13.26355 -1.10877,3.84693 -3.11389,7.08869 -3.67686,11.22713 -1.58063,7.38846 -4.58481,14.65126 -5.32698,22.1353 2.11034,3.23572 4.08431,-1.53317 4.08063,-3.54983 3.77486,-13.92402 7.84074,-27.79527 11.45551,-41.74754 -0.0267,-1.05192 -1.27243,-1.74725 -2.17676,-1.32861 z"
       id="path3887"
       inkscape:connector-curvature="0" />
    <path
       style="opacity:1;fill:#e0e0e0;fill-opacity:1;fill-rule:evenodd;stroke:none;stroke-width:0.19996196;stroke-linejoin:round;stroke-miterlimit:4;stroke-dasharray:none;stroke-opacity:1"
       d="m 542.29541,166.57764 c -2.98613,2.00958 -2.80695,6.63235 -3.48633,9.83203 0.96649,3.32738 4.3081,0.39052 3.93355,-2.05314 -0.099,-2.14954 3.64729,-7.43667 -0.44722,-7.77889 z"
       id="path3889"
       inkscape:connector-curvature="0" />
    <path
       style="opacity:1;fill:#e0e0e0;fill-opacity:1;fill-rule:evenodd;stroke:none;stroke-width:0.19996196;stroke-linejoin:round;stroke-miterlimit:4;stroke-dasharray:none;stroke-opacity:1"
       d="m 542.15186,163.7124 c -3.93982,0.56021 -5.3326,5.46306 -5.22511,8.76416 3.34283,3.84187 3.21696,-3.34313 4.89552,-5.18848 2.23757,-0.24936 3.3716,-3.4697 0.32959,-3.57568 z"
       id="path3893"
       inkscape:connector-curvature="0" />
    <path
       style="opacity:1;fill:#e0e0e0;fill-opacity:1;fill-rule:evenodd;stroke:none;stroke-width:0.19996196;stroke-linejoin:round;stroke-miterlimit:4;stroke-dasharray:none;stroke-opacity:1"
       d="m 524.521,130.61719 c -2.8732,0.14136 -4.81315,6.69955 -0.62403,5.25732 2.06277,-0.67765 4.13954,-2.70681 2.13574,-4.75342 -0.39673,-0.38178 -0.9669,-0.56771 -1.51171,-0.5039 z"
       id="path3895"
       inkscape:connector-curvature="0" />
    <path
       style="opacity:1;fill:#e0e0e0;fill-opacity:1;fill-rule:evenodd;stroke:none;stroke-width:0.19996196;stroke-linejoin:round;stroke-miterlimit:4;stroke-dasharray:none;stroke-opacity:1"
       d="m 515.94141,102.65479 c -2.77696,2.34592 -1.91591,7.07517 -3.25857,10.30666 -0.80222,5.46799 -3.18267,10.92704 -3.09446,16.40036 0.61245,1.85697 3.99964,5.09224 4.64062,1.44873 -0.70769,-9.23011 3.24595,-18.19086 3.55811,-27.30908 -0.38434,-0.82651 -1.06115,-0.83846 -1.8457,-0.84667 z"
       id="path3897"
       inkscape:connector-curvature="0" />
    <path
       style="opacity:1;fill:#e0e0e0;fill-opacity:1;fill-rule:evenodd;stroke:none;stroke-width:0.09998098;stroke-linejoin:round;stroke-miterlimit:4;stroke-dasharray:none;stroke-opacity:1"
       d="m 538.73584,100.00928 c -3.35387,2.00354 -3.21217,7.30939 -5.29182,10.4682 -2.34281,6.77165 -6.04749,13.26939 -7.66033,20.19537 2.72248,3.38562 3.97837,-2.32854 4.80387,-4.22441 1.79713,-3.6909 2.67352,-8.37931 5.21127,-11.36446 -0.23789,-4.87606 4.27051,-9.3031 4.48096,-14.24414 -0.53192,-0.25529 -0.83416,-1.029142 -1.54395,-0.83056 z m -3.81445,16.11767 c -0.54673,0.37893 -0.29963,0.15954 0,0 z"
       id="path3901"
       inkscape:connector-curvature="0" />
    <path
       style="opacity:1;fill:#e0e0e0;fill-opacity:1;fill-rule:evenodd;stroke:none;stroke-width:0.09998098;stroke-linejoin:round;stroke-miterlimit:4;stroke-dasharray:none;stroke-opacity:1"
       d="m 534.17579,117.23291 c -3.96912,6.96624 -6.13271,15.09917 -9.52373,22.45073 -1.93237,2.48248 -1.49515,5.98125 0.99686,7.88619 4.70269,0.11984 -0.65512,-5.07406 2.18922,-7.19202 2.54452,-5.95182 4.86933,-12.70221 7.60913,-18.17322 2.11221,2.6922 6.22263,5.24819 3.08784,8.80282 -1.8338,5.31458 -5.0276,10.37444 -6.04097,15.83585 3.12409,2.90689 4.05728,-3.26191 5.06609,-5.02731 1.64087,-5.0574 4.99073,-9.91034 5.69026,-15.0762 -2.44911,-3.27003 -4.90016,-6.70087 -7.81348,-9.54346 l -0.74968,0.0218 z"
       id="path3903"
       inkscape:connector-curvature="0" />
    <path
       style="opacity:1;fill:#e0e0e0;fill-opacity:1;fill-rule:evenodd;stroke:none;stroke-width:0.09998098;stroke-linejoin:round;stroke-miterlimit:4;stroke-dasharray:none;stroke-opacity:1"
       d="m 516.46582,114.20215 c -2.47226,3.02044 -1.70934,7.95168 -2.93115,11.65283 -0.52227,9.54606 2.83428,18.57088 7.14903,26.91067 2.03704,2.65653 1.81368,8.02358 5.34169,9.01608 3.29649,-1.76866 -0.96598,-5.54255 -1.32739,-8.06187 -3.93027,-9.4384 -9.35079,-18.90222 -7.35034,-29.485 -0.26314,-3.20703 2.46932,-7.52628 0.12484,-10.04559 -0.29721,-0.1941 -0.67077,0.001 -1.00668,0.0129 z"
       id="path3905"
       inkscape:connector-curvature="0" />
    <path
       style="opacity:1;fill:#e0e0e0;fill-opacity:1;fill-rule:evenodd;stroke:none;stroke-width:0.14139447;stroke-linejoin:round;stroke-miterlimit:4;stroke-dasharray:none;stroke-opacity:1"
       d="m 510.86572,196.73291 c -4.0213,1.04682 -8.78822,-0.54393 -12.29151,1.59375 -0.71997,2.19593 -3.94647,6.82657 0.19337,7.31982 3.43225,-0.33664 8.07395,2.31276 11.25146,0.1084 0.40305,-2.86797 4.47445,-6.42509 1.979,-8.9707 l -0.62695,-0.0879 z m -2.0376,3.55225 c -0.42837,1.89347 -1.39297,3.78443 -3.72438,2.84116 -2.47601,0.37034 -7.09697,-0.41606 -2.99485,-2.49839 2.21674,-0.10455 4.70047,-0.45658 6.71923,-0.34277 z"
       id="path3909"
       inkscape:connector-curvature="0" />
    <path
       style="opacity:1;fill:#e0e0e0;fill-opacity:1;fill-rule:evenodd;stroke:none;stroke-width:0.14139447;stroke-linejoin:round;stroke-miterlimit:4;stroke-dasharray:none;stroke-opacity:1"
       d="m 496.8208,197.39062 c -2.37456,1.00702 -3.13231,4.64406 -3.18603,7.01954 3.14958,2.65486 4.18257,-2.94307 4.9995,-4.99658 0.30538,-1.12781 -0.71008,-2.15605 -1.81347,-2.02296 z"
       id="path3911"
       inkscape:connector-curvature="0" />
    <path
       style="opacity:1;fill:#e0e0e0;fill-opacity:1;fill-rule:evenodd;stroke:none;stroke-width:0.14139447;stroke-linejoin:round;stroke-miterlimit:4;stroke-dasharray:none;stroke-opacity:1"
       d="m 395.14454,144.18604 c -1.22457,11.8023 -0.25597,24.00325 -2.313,35.74658 -2.28012,0.57891 -0.0946,-3.30791 -0.50097,-4.58936 -0.65029,-4.40328 -4.61496,-0.0923 -3.55078,2.6997 -1.01402,2.3711 -0.47953,5.55937 2.72167,5.16505 3.54476,1.64234 4.90472,-2.00926 4.98965,-4.94036 1.42353,-11.16755 1.30594,-22.53655 1.32676,-33.75788 -0.40183,-1.16679 -1.97326,-1.14284 -2.67333,-0.32373 z"
       id="path3913"
       inkscape:connector-curvature="0" />
    <path
       style="opacity:1;fill:#e0e0e0;fill-opacity:1;fill-rule:evenodd;stroke:none;stroke-width:0.14139447;stroke-linejoin:round;stroke-miterlimit:4;stroke-dasharray:none;stroke-opacity:1"
       d="m 387.12598,143.52246 c -3.13974,1.67647 -1.2718,6.6707 -2.38147,9.61114 -1.9774,18.4302 -4.3999,36.78929 -6.64637,55.18036 0.80881,2.90749 4.11673,0.49052 3.3999,-1.74169 2.70464,-20.56684 5.42541,-41.1586 7.40772,-61.79737 -0.15842,-0.82031 -0.9768,-1.3571 -1.77978,-1.25244 z"
       id="path3915"
       inkscape:connector-curvature="0" />
    <path
       style="opacity:1;fill:#e0e0e0;fill-opacity:1;fill-rule:evenodd;stroke:none;stroke-width:0.14139447;stroke-linejoin:round;stroke-miterlimit:4;stroke-dasharray:none;stroke-opacity:1"
       d="m 383.57666,195.3208 c -2.61,1.72629 -1.55748,5.89681 -2.15332,8.66309 1.96868,2.85437 6.66483,1.2724 9.67183,2.31681 27.38761,3.12144 54.76325,6.44674 82.15629,9.46053 3.55804,-1.41422 -0.61833,-4.52916 -2.94952,-3.51041 -28.49295,-3.3443 -57.0121,-6.55139 -85.46405,-10.12289 -0.32509,-2.01512 2.10522,-6.52946 -1.26123,-6.80713 z"
       id="path3917"
       inkscape:connector-curvature="0" />
    <path
       style="fill:#000000;fill-opacity:1;fill-rule:evenodd;stroke:#000000;stroke-width:0.75px;stroke-linecap:butt;stroke-linejoin:miter;stroke-opacity:1"
       d="m 440.86795,246.72821 3.11068,10.1804 14.13945,-9.61482 z"
       id="path4786"
       inkscape:connector-curvature="0"
       sodipodi:nodetypes="cccc" />
    <path
       style="fill:#000000;fill-opacity:1;fill-rule:evenodd;stroke:#000000;stroke-width:0.75px;stroke-linecap:butt;stroke-linejoin:miter;stroke-opacity:1"
       d="m 56.999688,201.26286 10.64311,-0.20264 -5.373343,-16.23258 z"
       id="path4786-3"
       inkscape:connector-curvature="0"
       sodipodi:nodetypes="cccc" />
    <path
       style="fill:#000000;fill-opacity:1;fill-rule:evenodd;stroke:#000000;stroke-width:0.75px;stroke-linecap:butt;stroke-linejoin:miter;stroke-opacity:1"
       d="M -1.4939408,281.84105 7.6219435,276.34401 -5.1477998,264.97284 Z"
       id="path4786-3-6"
       inkscape:connector-curvature="0"
       sodipodi:nodetypes="cccc" />
    <path
       style="fill:none;fill-rule:evenodd;stroke:#000000;stroke-width:0.75;stroke-linecap:butt;stroke-linejoin:miter;stroke-miterlimit:4;stroke-dasharray:3.00000001, 3.00000001;stroke-dashoffset:0;stroke-opacity:1"
       d="M 63.627511,365.49956 510.91552,298.74902"
       id="path4818"
       inkscape:connector-curvature="0" />
    <path
       style="fill:none;fill-rule:evenodd;stroke:#000000;stroke-width:0.75;stroke-linecap:butt;stroke-linejoin:miter;stroke-miterlimit:4;stroke-dasharray:3.00000001, 3.00000001;stroke-dashoffset:0;stroke-opacity:1"
       d="M 63.627511,365.49956 406.46059,4.714951"
       id="path4820"
       inkscape:connector-curvature="0"
       sodipodi:nodetypes="cc" />
    <text
       xml:space="preserve"
       style="font-style:normal;font-variant:normal;font-weight:normal;font-stretch:normal;font-size:16px;line-height:125%;font-family:'Bitstream Vera Sans';-inkscape-font-specification:'Bitstream Vera Sans, Normal';font-variant-ligatures:normal;font-variant-caps:normal;font-variant-numeric:normal;font-feature-settings:normal;text-align:start;letter-spacing:0px;word-spacing:0px;writing-mode:lr-tb;text-anchor:start;fill:#000000;fill-opacity:1;stroke:none;stroke-width:0.75px;stroke-linecap:butt;stroke-linejoin:miter;stroke-opacity:1"
       x="30.014093"
       y="392.68579"
       id="text4824"><tspan
         sodipodi:role="line"
         id="tspan4822"
         x="30.014093"
         y="392.68579"
         style="font-style:normal;font-variant:normal;font-weight:normal;font-stretch:normal;font-size:16px;font-family:'Bitstream Vera Sans';-inkscape-font-specification:'Bitstream Vera Sans, Normal';font-variant-ligatures:normal;font-variant-caps:normal;font-variant-numeric:normal;font-feature-settings:normal;text-align:start;writing-mode:lr-tb;text-anchor:start;stroke-width:0.75px">Camera</tspan></text>
    <text
       xml:space="preserve"
       style="font-style:italic;font-variant:normal;font-weight:normal;font-stretch:normal;font-size:16px;line-height:125%;font-family:'Times New Roman';-inkscape-font-specification:'Times New Roman, Italic';font-variant-ligatures:normal;font-variant-caps:normal;font-variant-numeric:normal;font-feature-settings:normal;text-align:start;letter-spacing:0px;word-spacing:0px;writing-mode:lr-tb;text-anchor:start;fill:#000000;fill-opacity:1;stroke:none;stroke-width:0.75px;stroke-linecap:butt;stroke-linejoin:miter;stroke-opacity:1"
       x="9.2057018"
       y="268.48471"
       id="text4828"><tspan
         sodipodi:role="line"
         id="tspan4826"
         x="9.2057018"
         y="268.48471"
         style="font-style:italic;font-variant:normal;font-weight:normal;font-stretch:normal;font-size:16px;font-family:'Times New Roman';-inkscape-font-specification:'Times New Roman, Italic';font-variant-ligatures:normal;font-variant-caps:normal;font-variant-numeric:normal;font-feature-settings:normal;text-align:start;writing-mode:lr-tb;text-anchor:start;stroke-width:0.75px">x</tspan></text>
    <text
       xml:space="preserve"
       style="font-style:italic;font-variant:normal;font-weight:normal;font-stretch:normal;font-size:16px;line-height:125%;font-family:'Times New Roman';-inkscape-font-specification:'Times New Roman, Italic';font-variant-ligatures:normal;font-variant-caps:normal;font-variant-numeric:normal;font-feature-settings:normal;text-align:start;letter-spacing:0px;word-spacing:0px;writing-mode:lr-tb;text-anchor:start;fill:#000000;fill-opacity:1;stroke:none;stroke-width:0.75px;stroke-linecap:butt;stroke-linejoin:miter;stroke-opacity:1"
       x="74.342941"
       y="205.55745"
       id="text4832"><tspan
         sodipodi:role="line"
         id="tspan4830"
         x="74.342941"
         y="205.55745"
         style="font-style:italic;font-variant:normal;font-weight:normal;font-stretch:normal;font-size:16px;font-family:'Times New Roman';-inkscape-font-specification:'Times New Roman, Italic';font-variant-ligatures:normal;font-variant-caps:normal;font-variant-numeric:normal;font-feature-settings:normal;text-align:start;writing-mode:lr-tb;text-anchor:start;stroke-width:0.75px">y</tspan></text>
    <text
       xml:space="preserve"
       style="font-style:italic;font-variant:normal;font-weight:normal;font-stretch:normal;font-size:16px;line-height:125%;font-family:'Times New Roman';-inkscape-font-specification:'Times New Roman, Italic';font-variant-ligatures:normal;font-variant-caps:normal;font-variant-numeric:normal;font-feature-settings:normal;text-align:start;letter-spacing:0px;word-spacing:0px;writing-mode:lr-tb;text-anchor:start;fill:#000000;fill-opacity:1;stroke:none;stroke-width:0.75px;stroke-linecap:butt;stroke-linejoin:miter;stroke-opacity:1"
       x="446.62344"
       y="268.29214"
       id="text4836"><tspan
         sodipodi:role="line"
         id="tspan4834"
         x="446.62344"
         y="268.29214"
         style="font-style:italic;font-variant:normal;font-weight:normal;font-stretch:normal;font-size:16px;font-family:'Times New Roman';-inkscape-font-specification:'Times New Roman, Italic';font-variant-ligatures:normal;font-variant-caps:normal;font-variant-numeric:normal;font-feature-settings:normal;text-align:start;writing-mode:lr-tb;text-anchor:start;stroke-width:0.75px">z</tspan></text>
    <text
       xml:space="preserve"
       style="font-style:normal;font-variant:normal;font-weight:normal;font-stretch:normal;font-size:16px;line-height:125%;font-family:'Bitstream Vera Sans';-inkscape-font-specification:'Bitstream Vera Sans, Normal';font-variant-ligatures:normal;font-variant-caps:normal;font-variant-numeric:normal;font-feature-settings:normal;text-align:start;letter-spacing:0px;word-spacing:0px;writing-mode:lr-tb;text-anchor:start;fill:#000000;fill-opacity:1;stroke:none;stroke-width:0.75px;stroke-linecap:butt;stroke-linejoin:miter;stroke-opacity:1"
       x="204.77385"
       y="424.06924"
       id="text4840"><tspan
         sodipodi:role="line"
         id="tspan4838"
         x="204.77385"
         y="424.06924"
         style="font-style:normal;font-variant:normal;font-weight:normal;font-stretch:normal;font-size:16px;font-family:'Bitstream Vera Sans';-inkscape-font-specification:'Bitstream Vera Sans, Normal';font-variant-ligatures:normal;font-variant-caps:normal;font-variant-numeric:normal;font-feature-settings:normal;text-align:start;writing-mode:lr-tb;text-anchor:start;stroke-width:0.75px">Image plane</tspan></text>
    <text
       xml:space="preserve"
       style="font-style:normal;font-variant:normal;font-weight:normal;font-stretch:normal;font-size:16px;line-height:125%;font-family:'Bitstream Vera Sans';-inkscape-font-specification:'Bitstream Vera Sans, Normal';font-variant-ligatures:normal;font-variant-caps:normal;font-variant-numeric:normal;font-feature-settings:normal;text-align:start;letter-spacing:0px;word-spacing:0px;writing-mode:lr-tb;text-anchor:start;fill:#000000;fill-opacity:1;stroke:none;stroke-width:0.75px;stroke-linecap:butt;stroke-linejoin:miter;stroke-opacity:1"
       x="434.06223"
       y="166.98639"
       id="text4844"><tspan
         sodipodi:role="line"
         id="tspan4842"
         x="434.06223"
         y="166.98639"
         style="font-style:normal;font-variant:normal;font-weight:normal;font-stretch:normal;font-size:16px;font-family:'Bitstream Vera Sans';-inkscape-font-specification:'Bitstream Vera Sans, Normal';font-variant-ligatures:normal;font-variant-caps:normal;font-variant-numeric:normal;font-feature-settings:normal;text-align:start;writing-mode:lr-tb;text-anchor:start;stroke-width:0.75px">Object</tspan></text>
    <text
       xml:space="preserve"
       style="font-style:normal;font-variant:normal;font-weight:bold;font-stretch:normal;font-size:16px;line-height:125%;font-family:'Times New Roman';-inkscape-font-specification:'Times New Roman, Bold';font-variant-ligatures:normal;font-variant-caps:normal;font-variant-numeric:normal;font-feature-settings:normal;text-align:start;letter-spacing:0px;word-spacing:0px;writing-mode:lr-tb;text-anchor:start;fill:#000000;fill-opacity:1;stroke:none;stroke-width:0.75px;stroke-linecap:butt;stroke-linejoin:miter;stroke-opacity:1"
       x="396.35068"
       y="-1.6981022"
       id="text4886"><tspan
         sodipodi:role="line"
         id="tspan4884"
         x="396.35068"
         y="-1.6981022"
         style="font-style:normal;font-variant:normal;font-weight:bold;font-stretch:normal;font-size:16px;font-family:'Times New Roman';-inkscape-font-specification:'Times New Roman, Bold';font-variant-ligatures:normal;font-variant-caps:normal;font-variant-numeric:normal;font-feature-settings:normal;text-align:start;writing-mode:lr-tb;text-anchor:start;stroke-width:0.75px">p</tspan></text>
    <text
       xml:space="preserve"
       style="font-style:normal;font-variant:normal;font-weight:bold;font-stretch:normal;font-size:16px;line-height:125%;font-family:'Times New Roman';-inkscape-font-specification:'Times New Roman, Bold';font-variant-ligatures:normal;font-variant-caps:normal;font-variant-numeric:normal;font-feature-settings:normal;text-align:start;letter-spacing:0px;word-spacing:0px;writing-mode:lr-tb;text-anchor:start;fill:#000000;fill-opacity:1;stroke:none;stroke-width:0.75px;stroke-linecap:butt;stroke-linejoin:miter;stroke-opacity:1"
       x="233.02039"
       y="168.5869"
       id="text4890"><tspan
         sodipodi:role="line"
         id="tspan4888"
         x="233.02039"
         y="168.5869"
         style="font-style:normal;font-variant:normal;font-weight:bold;font-stretch:normal;font-size:16px;font-family:'Times New Roman';-inkscape-font-specification:'Times New Roman, Bold';font-variant-ligatures:normal;font-variant-caps:normal;font-variant-numeric:normal;font-feature-settings:normal;text-align:start;writing-mode:lr-tb;text-anchor:start;stroke-width:0.75px">p'</tspan></text>
  </g>
  <g
     transform="matrix(0.011908,0,0,-0.011908,-13.665171,444.56591)"
     id="g6"
     style="fill:#000000;stroke:none">
    <path
       d="m 35812,36543 c -38,-18 -130,-115 -143,-151 -5,-14 -54,-392 -109,-841 -55,-449 -111,-906 -125,-1016 -37,-305 -128,-1046 -180,-1465 -95,-779 -116,-952 -145,-1185 -16,-132 -43,-350 -60,-485 -16,-135 -34,-285 -40,-335 -5,-49 -28,-247 -49,-440 -22,-192 -47,-415 -56,-495 -9,-80 -18,-156 -22,-170 -5,-23 -6,-24 -13,-5 -13,34 -52,62 -133,94 -71,28 -100,33 -360,56 -298,28 -463,36 -536,28 -36,-4 -53,-14 -92,-53 -84,-84 -82,-76 -138,-586 -62,-565 -69,-622 -86,-754 -19,-142 -137,-1177 -235,-2055 -44,-396 -84,-756 -90,-800 -6,-44 -55,-489 -111,-990 -55,-500 -111,-1009 -125,-1130 -30,-271 -40,-371 -314,-3000 -50,-482 -346,-3181 -380,-3460 -6,-49 -13,-112 -16,-140 -2,-27 -9,-86 -14,-130 -6,-44 -33,-289 -60,-545 -28,-256 -69,-627 -90,-825 -69,-620 -107,-971 -175,-1590 -37,-330 -69,-603 -73,-606 -4,-3 -50,-18 -102,-33 -52,-16 -129,-39 -170,-51 -41,-13 -129,-39 -195,-59 -66,-19 -196,-58 -290,-86 -93,-28 -206,-62 -250,-75 -44,-13 -156,-47 -250,-76 -93,-28 -179,-54 -190,-56 -11,-3 -60,-18 -110,-33 -335,-105 -675,-203 -682,-197 -2,3 1,157 6,343 6,187 18,573 26,859 8,286 19,671 25,855 5,184 17,567 25,850 8,283 19,664 25,845 5,182 17,569 25,860 18,627 31,1080 45,1526 6,179 7,335 4,345 -19,54 -66,97 -503,465 -185,155 -304,256 -402,340 -93,79 -434,367 -644,544 -329,277 -563,475 -650,550 -45,39 -131,111 -191,162 -60,50 -190,160 -289,243 -99,84 -288,244 -420,355 -267,225 -484,409 -650,550 -198,168 -519,439 -586,495 -36,30 -177,150 -314,265 -136,116 -296,251 -355,300 -58,50 -174,147 -256,217 -82,69 -288,244 -459,388 -419,354 -594,503 -685,580 -42,36 -186,157 -320,270 -251,212 -742,627 -1004,849 -83,69 -186,158 -231,196 -45,39 -146,124 -225,190 -79,66 -178,149 -220,185 -42,36 -128,108 -191,161 -136,115 -558,472 -718,607 -63,53 -151,129 -196,167 -99,85 -437,370 -704,594 -108,91 -272,230 -366,309 -93,79 -221,188 -284,241 -63,53 -151,128 -196,166 -392,336 -405,345 -467,345 -59,0 -104,-24 -131,-70 -21,-35 -18,46 -62,-1725 -13,-561 -29,-1198 -35,-1415 -11,-436 -23,-897 -45,-1810 -8,-333 -17,-690 -20,-795 -3,-104 -12,-469 -20,-810 -9,-341 -22,-890 -30,-1220 -31,-1254 -46,-1829 -60,-2405 -8,-327 -24,-962 -35,-1410 -21,-874 -41,-1667 -65,-2620 -8,-327 -22,-867 -30,-1200 -8,-333 -22,-870 -30,-1195 -31,-1261 -31,-1208 -6,-1249 13,-20 27,-36 31,-36 5,0 15,-11 22,-24 7,-13 114,-120 238,-237 124,-117 344,-326 490,-464 409,-388 609,-576 657,-619 24,-21 41,-42 36,-45 -4,-4 -51,-20 -103,-35 -52,-16 -129,-39 -170,-51 -41,-13 -131,-40 -200,-60 -69,-21 -181,-54 -250,-75 -69,-21 -181,-55 -250,-75 -69,-21 -159,-48 -200,-60 -41,-13 -129,-39 -195,-59 -66,-19 -196,-58 -290,-86 -93,-28 -206,-62 -250,-75 -44,-13 -156,-47 -250,-76 -93,-28 -186,-56 -205,-61 -19,-5 -69,-20 -110,-33 -41,-13 -154,-47 -250,-75 -96,-28 -215,-64 -265,-79 -49,-16 -133,-41 -185,-56 -52,-15 -129,-38 -170,-50 -150,-46 -479,-145 -650,-195 -96,-28 -215,-64 -265,-80 -49,-15 -139,-42 -200,-60 -60,-18 -144,-42 -185,-55 -41,-13 -160,-49 -265,-80 -104,-31 -224,-67 -265,-79 -41,-13 -118,-36 -170,-51 -52,-15 -135,-40 -185,-56 -49,-15 -198,-60 -330,-99 -132,-39 -278,-83 -325,-97 -47,-14 -119,-36 -160,-48 -41,-12 -113,-34 -160,-48 -47,-14 -123,-37 -170,-50 -47,-14 -229,-69 -405,-122 -176,-54 -329,-99 -340,-102 -11,-3 -60,-18 -110,-33 -49,-16 -252,-76 -450,-135 -198,-59 -394,-117 -435,-130 -41,-13 -131,-40 -200,-60 -69,-20 -159,-47 -200,-60 -41,-13 -154,-47 -250,-75 -96,-28 -215,-64 -265,-79 -49,-16 -133,-41 -185,-56 -52,-15 -135,-40 -185,-56 -142,-44 -735,-221 -790,-236 -27,-7 -84,-24 -125,-37 -41,-13 -124,-39 -185,-56 -60,-17 -144,-42 -185,-55 -41,-13 -113,-35 -160,-49 -47,-14 -161,-48 -255,-77 -254,-76 -269,-80 -277,-64 -5,7 -26,35 -47,63 -69,87 -168,155 -273,188 l -56,17 -6,141 c -3,78 -10,1131 -16,2341 -5,1210 -21,4257 -35,6770 -23,4088 -27,4575 -41,4613 -45,121 -213,124 -266,4 -19,-43 -20,-63 -13,-821 3,-427 17,-2835 31,-5351 13,-2516 28,-5279 33,-6139 6,-861 8,-1568 5,-1573 -3,-4 -14,-8 -25,-8 -22,0 9,-43 -485,665 -207,297 -474,680 -594,850 -119,171 -238,342 -265,380 -27,39 -108,153 -179,255 -71,102 -186,266 -255,366 -276,395 -788,1129 -827,1182 -38,53 -173,246 -357,511 -44,63 -190,272 -325,465 -135,193 -296,424 -358,512 -62,89 -129,186 -150,215 -21,30 -72,104 -114,164 -42,61 -105,151 -140,200 -35,50 -100,142 -143,205 -76,109 -215,308 -462,660 -60,85 -137,196 -172,247 -35,50 -78,101 -97,112 -41,26 -116,28 -156,4 -60,-35 -87,-130 -55,-192 14,-29 105,-160 344,-501 71,-102 203,-291 294,-420 90,-129 248,-356 352,-505 104,-148 250,-358 325,-465 151,-216 380,-543 423,-605 118,-168 333,-476 492,-704 105,-149 251,-359 325,-465 117,-167 283,-405 399,-571 180,-257 258,-369 336,-480 120,-171 524,-749 579,-828 23,-34 85,-123 137,-197 52,-74 120,-171 151,-215 30,-44 176,-253 324,-465 148,-212 298,-426 333,-477 l 63,-92 -20,-28 c -66,-94 -102,-211 -102,-333 0,-146 52,-282 151,-393 226,-254 642,-254 868,0 86,96 151,247 151,350 v 40 l 103,31 c 89,28 228,69 522,157 44,13 157,47 250,76 94,28 190,57 215,64 25,6 101,29 170,50 69,21 152,46 185,55 33,10 159,48 280,85 121,37 240,73 265,80 25,7 83,24 130,38 111,33 571,171 680,203 47,14 119,36 160,49 41,13 131,40 200,60 69,20 159,47 200,60 41,13 154,47 250,75 96,28 216,64 265,79 50,16 133,41 185,56 52,15 136,40 185,56 50,15 252,75 450,134 198,59 401,119 450,135 50,16 106,33 125,38 55,15 180,53 525,157 176,54 329,99 340,102 11,3 54,15 95,28 173,52 683,205 905,271 66,20 154,46 195,59 41,13 125,38 185,55 61,17 144,42 185,55 41,13 113,35 160,49 47,14 162,48 255,77 94,28 179,54 190,56 11,3 61,18 110,33 91,29 690,209 800,240 33,9 116,34 185,55 69,21 159,48 200,60 175,52 532,159 615,184 50,16 133,41 185,56 52,15 136,40 185,56 50,15 214,64 365,109 151,45 309,92 350,105 41,12 129,39 195,58 66,20 173,53 239,73 l 118,36 42,-39 c 22,-22 122,-115 221,-208 226,-213 483,-455 740,-700 110,-105 277,-262 370,-350 200,-187 473,-445 745,-704 108,-102 310,-294 450,-426 140,-131 307,-289 370,-350 63,-61 198,-190 300,-285 256,-241 511,-482 735,-695 105,-100 269,-255 365,-345 143,-134 592,-559 1025,-970 368,-349 879,-832 1010,-955 158,-148 332,-313 735,-695 113,-107 324,-307 470,-445 146,-137 357,-338 470,-445 211,-200 668,-633 820,-775 47,-44 171,-161 275,-261 315,-300 419,-395 450,-411 48,-26 117,-22 158,10 67,51 64,22 92,992 14,484 32,1105 40,1380 8,275 22,736 30,1025 8,289 20,669 25,845 5,176 14,480 20,675 5,195 17,582 25,860 8,278 22,741 30,1030 8,289 20,669 25,845 5,176 14,478 20,670 5,193 17,580 25,860 8,281 22,744 30,1030 21,718 34,1156 45,1520 6,171 10,322 10,337 0,25 6,29 58,44 31,9 199,59 372,111 173,52 335,101 360,107 25,7 101,30 170,51 69,21 159,48 200,60 184,54 533,159 615,185 50,15 140,42 200,60 61,18 138,41 172,52 35,11 67,17 71,14 5,-3 12,-34 14,-70 7,-81 29,-113 105,-154 47,-24 78,-33 163,-42 58,-6 227,-24 375,-41 149,-17 288,-28 309,-24 60,9 131,43 153,73 56,75 64,107 94,361 16,135 29,253 29,262 0,10 11,20 28,23 27,7 52,14 357,107 94,28 208,62 255,76 47,14 123,36 170,50 47,14 112,34 145,43 33,10 159,48 280,85 121,37 240,73 265,80 25,7 83,24 130,38 111,33 571,171 680,203 47,14 119,36 160,49 41,13 131,40 200,60 69,20 159,47 200,60 41,13 154,47 250,75 96,28 216,64 265,80 50,15 133,40 185,55 52,15 136,40 185,56 135,42 733,220 790,236 28,7 84,24 125,37 41,14 91,29 110,34 55,15 181,53 525,157 176,54 334,101 350,105 29,7 84,23 270,81 50,15 122,37 160,48 106,32 145,74 145,156 0,87 -57,145 -142,145 -26,0 -89,-13 -140,-28 -51,-16 -136,-42 -188,-57 -52,-15 -135,-40 -185,-56 -49,-15 -198,-60 -330,-99 -132,-39 -278,-83 -325,-97 -47,-14 -119,-36 -160,-48 -41,-12 -113,-34 -160,-48 -47,-14 -123,-37 -170,-50 -47,-14 -229,-69 -405,-122 -176,-54 -329,-99 -340,-102 -11,-3 -60,-18 -110,-33 -49,-16 -252,-76 -450,-135 -198,-59 -394,-117 -435,-130 -41,-13 -131,-40 -200,-60 -69,-20 -159,-47 -200,-60 -41,-13 -154,-47 -250,-75 -96,-28 -215,-64 -265,-79 -49,-16 -133,-41 -185,-56 -52,-15 -135,-40 -185,-56 -142,-44 -735,-221 -790,-236 -27,-7 -84,-24 -125,-37 -41,-13 -124,-39 -185,-56 -60,-17 -143,-42 -184,-56 -41,-13 -76,-23 -77,-21 -2,1 3,59 11,127 8,69 24,204 35,300 11,96 36,310 55,475 149,1296 186,1617 200,1735 45,378 353,2752 358,2756 2,2 118,-10 258,-26 140,-16 529,-61 864,-100 862,-99 1029,-119 1120,-130 44,-6 177,-21 295,-35 864,-99 1829,-211 1945,-225 102,-12 404,-47 905,-105 217,-25 451,-52 520,-60 69,-8 260,-31 425,-50 896,-104 1584,-183 2210,-255 385,-45 706,-83 713,-85 6,-3 12,-13 12,-24 0,-26 51,-67 92,-74 18,-4 137,-18 263,-33 127,-14 298,-34 380,-43 91,-11 162,-14 180,-9 28,7 59,34 67,59 3,10 202,-11 1018,-108 l 224,-27 236,-199 c 129,-110 240,-205 247,-211 9,-9 -9,-91 -81,-361 -174,-653 -427,-1599 -496,-1855 -38,-140 -117,-435 -175,-655 -59,-220 -169,-632 -245,-915 -76,-283 -182,-677 -234,-875 -53,-198 -134,-502 -181,-675 -47,-173 -88,-329 -91,-345 -7,-35 86,-396 116,-456 17,-32 80,-88 151,-133 14,-8 86,-25 160,-36 637,-97 652,-98 749,-80 103,20 125,41 169,170 24,69 109,354 176,590 36,127 178,613 195,665 10,33 32,107 49,165 17,58 92,314 167,570 156,534 181,621 338,1165 145,504 232,807 290,1005 24,85 92,322 151,525 58,204 139,485 180,625 40,140 112,390 160,555 48,165 106,368 130,450 24,83 91,321 150,530 58,209 126,451 151,537 40,144 65,233 169,603 19,66 54,192 79,280 25,88 66,234 91,325 46,165 93,332 185,660 27,96 131,474 230,840 100,366 217,796 260,955 44,160 167,612 274,1005 197,725 305,1119 421,1535 35,127 84,304 109,395 25,91 67,246 95,345 27,99 74,270 105,380 166,604 245,926 262,1069 l 17,144 -39,83 c -37,82 -45,91 -364,412 -423,428 -1177,1107 -1292,1164 -74,38 -293,79 -651,123 -205,25 -268,25 -394,-4 -135,-30 -230,-85 -278,-160 -60,-95 -72,-120 -205,-452 -73,-181 -174,-432 -225,-559 -51,-126 -194,-482 -318,-790 -124,-308 -289,-717 -367,-910 -78,-192 -148,-369 -156,-391 -15,-40 -17,-42 -65,-46 -39,-4 -66,-16 -122,-54 -65,-44 -76,-57 -109,-123 l -36,-74 -8,49 c -13,86 -7,372 14,619 29,344 77,587 438,2200 190,847 301,1351 390,1770 15,66 36,167 49,225 13,58 34,159 48,225 14,66 30,140 36,165 6,25 22,97 36,160 13,63 94,439 180,835 85,396 160,740 166,764 5,25 19,85 29,135 11,50 35,165 55,256 20,91 54,251 76,355 22,105 78,368 124,585 46,217 121,566 165,775 97,456 123,575 156,720 19,82 25,136 25,213 -1,96 -4,110 -37,187 -50,116 -71,133 -196,162 -80,18 -133,23 -239,23 -152,0 -172,-5 -274,-65 -63,-37 -74,-48 -110,-113 l -40,-73 -75,6 c -187,13 -555,38 -1170,80 -366,25 -1027,70 -1470,100 -443,31 -1163,80 -1600,110 -437,30 -1157,79 -1600,110 -443,30 -879,60 -970,65 -91,5 -205,12 -255,15 -49,3 -254,14 -455,25 -201,11 -403,22 -450,25 -162,9 -276,15 -555,30 -154,8 -307,17 -340,20 -33,2 -293,17 -578,32 -285,15 -522,30 -527,33 -6,3 -13,49 -16,101 -8,110 -23,145 -69,165 -27,11 -409,54 -475,54 -8,0 -30,-8 -48,-17 z m 348,-212 45,-6 8,-125 c 7,-125 7,-126 -112,-965 -112,-780 -138,-975 -220,-1605 -36,-274 -183,-1408 -241,-1850 -22,-168 -56,-451 -75,-630 -20,-179 -67,-606 -105,-950 -38,-344 -87,-791 -110,-995 -41,-379 -49,-433 -150,-1120 -32,-220 -68,-463 -79,-540 -28,-190 -138,-1430 -146,-1635 -26,-716 -35,-991 -40,-1230 -3,-151 -7,-363 -10,-470 -3,-107 -7,-316 -10,-465 -3,-148 -7,-353 -10,-455 -3,-102 -7,-315 -10,-475 -3,-159 -17,-461 -31,-670 -26,-390 -33,-445 -112,-800 -17,-80 -17,-80 -47,-77 -51,6 -340,54 -344,57 -2,2 20,138 47,302 28,164 54,343 57,398 23,421 47,914 50,1035 2,91 15,235 35,385 39,286 38,376 -4,457 l -27,51 22,23 c 25,27 26,37 39,329 6,127 15,320 20,430 5,110 12,252 15,315 3,63 7,156 10,205 7,141 14,283 25,505 5,113 14,295 20,405 5,110 32,398 59,640 52,459 54,472 101,885 16,141 38,337 49,435 35,308 90,799 121,1065 16,141 39,339 50,440 11,101 29,261 40,354 11,94 36,313 55,486 67,591 117,1015 230,1925 34,277 82,662 190,1550 31,253 90,730 130,1060 41,330 93,758 116,950 52,430 37,400 194,390 61,-4 130,-10 155,-14 z m 735,-321 c 88,-5 369,-21 625,-35 256,-13 499,-27 540,-29 41,-3 125,-8 185,-11 61,-3 144,-8 185,-10 41,-3 244,-14 450,-25 206,-11 411,-22 455,-25 44,-3 154,-10 245,-15 156,-10 670,-45 1330,-90 635,-44 1649,-113 2630,-180 695,-47 1077,-74 1235,-85 39,-3 237,-17 440,-30 204,-14 406,-28 450,-31 44,-3 259,-18 477,-33 219,-15 400,-30 404,-33 3,-3 -29,-176 -71,-385 -261,-1287 -271,-1335 -466,-2238 -27,-126 -61,-282 -74,-345 -13,-63 -58,-272 -100,-465 -42,-192 -87,-402 -100,-465 -13,-63 -58,-272 -100,-465 -42,-192 -87,-402 -100,-465 -13,-63 -47,-221 -75,-350 -28,-129 -71,-329 -95,-445 -54,-257 -155,-730 -230,-1085 -31,-146 -72,-339 -91,-430 -45,-211 -43,-209 -179,-211 -77,0 -275,24 -860,105 -418,58 -812,112 -875,121 -63,9 -259,36 -435,60 -289,40 -2909,315 -3145,330 -52,3 -275,14 -495,25 -220,11 -436,22 -480,25 -44,3 -258,14 -475,25 -217,11 -429,22 -470,25 -106,6 -268,14 -545,25 -443,18 -500,20 -605,25 -58,3 -172,7 -255,10 -82,3 -181,8 -220,10 -38,3 -162,8 -275,11 -113,3 -208,9 -212,13 -3,3 2,80 13,171 10,91 55,496 99,900 44,404 85,771 90,815 6,44 26,226 45,405 20,179 63,532 96,785 33,253 98,753 144,1110 46,358 107,821 134,1030 52,390 267,1911 277,1954 l 5,24 157,-7 c 86,-4 229,-11 317,-16 z m 10163,-384 c 35,-8 64,-15 66,-17 42,-64 48,-153 19,-289 -40,-182 -67,-309 -116,-540 -26,-118 -74,-343 -107,-500 -60,-282 -109,-512 -216,-1015 -53,-251 -101,-474 -149,-695 -13,-58 -34,-159 -48,-225 -14,-66 -30,-140 -36,-165 -6,-25 -22,-97 -36,-160 -13,-63 -94,-439 -180,-835 -85,-396 -162,-749 -170,-785 -8,-36 -26,-118 -40,-182 -14,-65 -36,-169 -50,-230 -13,-62 -54,-248 -89,-413 -36,-165 -112,-511 -170,-770 -331,-1481 -399,-1793 -441,-2010 -25,-132 -55,-283 -66,-335 -11,-54 -30,-238 -44,-430 -24,-325 -25,-341 -10,-550 14,-208 16,-220 65,-390 33,-112 72,-220 110,-300 32,-69 100,-213 150,-320 51,-107 112,-237 137,-289 40,-85 307,-651 421,-891 24,-52 64,-135 87,-185 23,-49 82,-173 130,-275 48,-102 104,-221 125,-265 21,-44 97,-206 170,-360 430,-909 458,-975 520,-1195 55,-197 57,-211 64,-365 l 7,-160 -42,-170 c -31,-124 -53,-190 -82,-245 -22,-41 -42,-78 -46,-82 -3,-4 -71,6 -151,21 -80,16 -162,31 -183,35 l -37,7 24,42 c 31,54 82,218 102,333 11,60 16,137 14,239 l -2,150 -53,165 c -38,120 -108,288 -258,620 -112,250 -338,752 -500,1115 -163,363 -427,953 -587,1310 -160,358 -301,673 -312,700 -11,28 -49,194 -84,369 l -64,320 -11,285 -10,286 60,320 c 33,176 76,408 96,515 38,204 42,228 156,870 38,217 95,521 125,675 30,154 87,440 125,635 39,195 83,423 99,505 16,83 52,265 80,405 27,140 50,266 50,281 0,14 23,131 50,260 28,129 62,286 75,349 13,63 58,273 100,465 41,193 118,550 171,795 52,245 101,474 109,510 9,36 51,234 95,440 45,206 92,425 105,485 25,115 85,407 356,1749 57,279 56,261 15,357 -5,10 1,19 16,27 32,15 221,14 296,-2 z M 34315,29911 c 168,-14 272,-28 316,-41 l 66,-20 23,-63 23,-62 -37,-375 c -39,-390 -81,-748 -88,-755 -5,-6 -878,102 -886,109 -3,4 24,274 60,602 56,509 68,598 84,615 22,25 26,25 439,-10 z m 13285,-1126 c 325,-40 525,-75 603,-104 83,-32 804,-675 1196,-1068 156,-156 282,-285 280,-287 -4,-3 -177,15 -684,71 l -249,28 -20,40 c -26,50 -489,515 -926,930 -179,169 -347,330 -375,356 l -50,49 h 50 c 28,0 107,-7 175,-15 z m -110,-374 c 119,-114 299,-285 400,-381 102,-96 289,-280 415,-408 191,-194 235,-244 260,-295 43,-91 44,-151 7,-279 -17,-56 -42,-141 -56,-188 -13,-47 -45,-155 -70,-240 -24,-85 -58,-204 -75,-265 -16,-60 -64,-234 -106,-385 -42,-151 -94,-338 -115,-415 -42,-153 -223,-808 -300,-1085 -107,-385 -171,-615 -230,-830 -34,-124 -79,-286 -100,-360 -21,-74 -59,-214 -85,-310 -26,-96 -51,-179 -55,-183 -4,-4 -12,5 -19,20 -10,25 -2,66 64,323 96,374 341,1305 445,1690 44,162 80,309 80,326 0,39 -15,61 -192,281 -79,98 -247,306 -373,463 -126,157 -312,389 -414,515 -439,546 -402,505 -458,505 -69,0 -72,-7 -345,-688 -207,-519 -254,-630 -262,-613 -7,16 0,45 32,124 63,158 398,988 617,1532 109,270 277,688 375,930 97,242 189,460 204,483 l 27,44 57,-53 c 31,-29 154,-145 272,-258 z m -11715,214 c 116,-3 226,-8 245,-10 19,-2 121,-7 225,-10 105,-3 219,-7 255,-10 36,-2 142,-7 235,-10 94,-3 211,-7 260,-10 50,-3 153,-7 230,-10 133,-5 182,-7 405,-20 132,-7 561,-30 1250,-65 748,-38 540,-20 2105,-180 1301,-133 1529,-160 2445,-290 113,-15 459,-63 770,-106 311,-42 566,-78 567,-78 1,-1 -22,-112 -52,-246 -106,-482 -205,-928 -244,-1110 -23,-102 -43,-194 -46,-205 -3,-11 -25,-114 -50,-230 -25,-115 -47,-210 -48,-211 -1,-2 -103,-12 -227,-23 -124,-12 -270,-30 -325,-41 -750,-146 -786,-152 -1265,-219 -385,-54 -426,-57 -695,-67 -99,-3 -191,-8 -205,-11 -14,-2 -254,-7 -535,-10 -496,-4 -522,-4 -935,26 -379,27 -647,52 -1285,121 -236,25 -665,117 -1405,301 -350,87 -447,116 -715,211 -170,60 -445,157 -610,214 -459,161 -496,175 -697,265 -173,76 -188,85 -188,109 0,85 65,716 95,921 90,621 146,995 150,1007 4,10 16,12 43,8 20,-3 132,-8 247,-11 z m -17274,-156 c 73,-62 419,-354 544,-459 228,-192 664,-560 740,-625 113,-96 277,-235 490,-415 99,-84 290,-245 424,-359 134,-113 251,-212 259,-219 13,-10 16,-29 14,-95 -5,-163 -162,-3992 -164,-4011 -2,-14 -305,231 -1253,1014 -687,567 -1253,1035 -1257,1039 -4,3 -1,263 7,576 33,1307 45,1795 65,2640 11,490 23,914 26,943 l 6,53 23,-18 c 12,-10 47,-39 76,-64 z m 15687,-29 c 216,-26 396,-50 399,-53 4,-5 -9,-130 -112,-1032 -72,-631 -95,-850 -135,-1255 -22,-228 -47,-480 -55,-560 -8,-80 -23,-237 -34,-350 -27,-277 -68,-691 -87,-880 -12,-125 -180,-1613 -275,-2435 -24,-213 -80,-639 -254,-1965 -70,-530 -102,-781 -260,-2005 -31,-236 -78,-601 -105,-810 -27,-209 -74,-596 -105,-860 -30,-264 -66,-574 -80,-690 -13,-115 -34,-291 -45,-390 -11,-99 -25,-216 -30,-260 -18,-150 -118,-1013 -180,-1560 -17,-148 -33,-278 -36,-288 -3,-10 -15,-24 -27,-32 -19,-12 -65,-9 -373,24 -194,21 -357,42 -363,45 -15,10 -14,86 4,241 8,72 44,400 80,730 36,330 79,719 95,865 27,244 50,452 175,1600 24,223 49,446 55,495 36,303 361,3259 410,3735 33,316 94,899 135,1295 123,1178 153,1464 190,1795 54,484 162,1454 195,1755 16,149 68,610 114,1025 47,415 112,1003 146,1305 34,303 63,556 65,563 3,9 18,11 52,7 27,-4 225,-28 441,-55 z m 10817,-642 c -3,-13 -30,-167 -60,-343 -31,-176 -76,-426 -100,-555 -24,-129 -72,-383 -105,-564 l -61,-329 6,-196 c 3,-108 8,-218 11,-246 l 5,-50 -29,45 c -16,25 -57,81 -91,125 -34,44 -59,86 -57,95 5,16 61,269 150,680 31,140 60,273 66,295 8,34 115,521 206,938 23,106 31,127 46,127 14,0 17,-6 13,-22 z m 3990,-603 c 83,-8 186,-20 230,-25 44,-6 188,-22 320,-36 132,-14 241,-27 243,-29 17,-17 -74,-395 -238,-992 -39,-139 -102,-369 -141,-510 -39,-142 -92,-337 -119,-433 -27,-96 -81,-292 -120,-435 -39,-143 -98,-354 -130,-470 -32,-115 -104,-379 -160,-585 -56,-206 -126,-463 -155,-570 -30,-107 -140,-512 -245,-900 -105,-388 -216,-795 -247,-905 -30,-110 -76,-281 -103,-380 -44,-163 -213,-769 -425,-1520 -19,-66 -54,-192 -79,-280 -238,-852 -359,-1280 -423,-1500 -41,-143 -117,-406 -168,-585 -51,-179 -114,-395 -138,-480 -25,-85 -93,-321 -152,-525 -58,-203 -140,-485 -180,-625 -117,-406 -219,-760 -320,-1110 -51,-179 -135,-467 -186,-640 -108,-371 -108,-370 -193,-660 -323,-1110 -496,-1684 -507,-1691 -29,-18 -64,-14 -626,72 -79,12 -143,25 -143,29 0,9 178,684 294,1110 46,173 133,495 191,715 114,427 140,521 205,765 23,85 88,328 145,540 183,688 435,1632 465,1740 16,58 61,224 100,370 39,146 119,432 176,635 58,204 130,458 160,565 30,107 68,240 84,295 16,55 58,204 94,330 36,127 112,397 170,600 57,204 125,444 151,535 25,91 47,170 50,176 3,9 20,8 67,-2 90,-19 131,-17 161,6 14,12 57,80 96,153 64,122 73,146 116,323 l 46,191 -9,204 -10,204 -60,210 c -34,116 -71,233 -83,261 l -22,51 23,31 c 15,20 52,136 106,334 47,167 111,400 144,518 150,543 288,1040 400,1445 67,242 143,519 170,615 27,96 74,267 105,380 31,113 83,300 115,415 32,116 113,408 180,650 161,584 176,637 286,1012 69,236 94,337 94,378 0,52 1,55 23,51 12,-3 90,-12 172,-21 z m -2357,-697 c 49,-62 151,-189 227,-283 280,-346 287,-355 277,-368 -6,-7 -37,-78 -70,-157 -33,-80 -128,-309 -212,-510 -84,-201 -178,-428 -210,-505 -32,-77 -133,-320 -224,-540 -92,-220 -186,-446 -209,-502 -23,-57 -44,-103 -47,-102 -3,0 -45,86 -95,192 -49,106 -127,270 -172,366 -46,95 -83,175 -83,176 0,1 -29,64 -65,138 -36,75 -65,138 -65,142 0,3 11,20 25,38 24,30 105,227 632,1540 107,268 197,487 198,487 2,0 44,-51 93,-112 z m -11246,-112 c 92,-41 353,-140 580,-219 227,-80 548,-193 713,-251 263,-94 354,-120 740,-216 724,-179 1176,-276 1405,-300 657,-69 896,-92 1155,-110 160,-11 360,-25 445,-31 148,-11 1110,-7 1170,4 14,3 102,8 195,11 321,12 381,18 805,77 371,52 602,90 865,144 360,74 533,99 825,121 l 86,7 60,-80 c 51,-67 86,-139 233,-469 95,-214 194,-436 221,-494 26,-58 144,-319 260,-580 117,-261 254,-567 305,-680 91,-200 771,-1721 935,-2090 80,-178 150,-367 150,-400 0,-12 -19,-21 -67,-33 -38,-9 -165,-42 -283,-72 -225,-58 -752,-146 -1065,-180 -619,-65 -667,-69 -965,-80 -85,-3 -186,-8 -225,-10 -38,-2 -151,-7 -250,-10 -99,-3 -198,-8 -220,-10 -115,-11 -1227,-16 -1400,-6 -104,6 -350,20 -545,31 -195,11 -393,22 -440,25 -73,5 -502,53 -755,85 -44,6 -177,22 -295,36 -187,22 -375,48 -595,84 -33,6 -175,28 -315,50 -231,36 -476,82 -1220,230 -256,50 -247,48 -1245,370 -462,149 -910,317 -1255,471 -184,83 -338,153 -342,157 -3,4 2,126 12,272 12,171 24,552 34,1075 9,446 18,884 21,975 3,91 7,289 10,440 3,151 10,381 15,510 5,129 12,323 15,430 12,376 43,790 58,790 2,0 78,-33 169,-74 z m -14176,-211 c 156,-132 303,-257 455,-385 126,-106 150,-126 578,-489 134,-113 262,-222 285,-241 22,-19 113,-95 201,-170 284,-241 669,-566 982,-829 l 163,-136 v -70 c 0,-96 -167,-3976 -172,-3980 -1,-2 -432,351 -957,785 l -955,788 -47,92 c -26,51 -55,100 -65,111 -24,27 -79,35 -108,15 -24,-15 -28,-12 -370,270 l -346,286 5,92 c 3,50 39,921 80,1936 41,1015 77,1898 81,1962 l 6,118 33,-28 c 18,-15 86,-72 151,-127 z m 26304,-774 c 121,-151 220,-278 220,-282 0,-4 -27,-106 -59,-226 -107,-393 -351,-1321 -436,-1657 -46,-181 -88,-332 -92,-336 -4,-4 -51,-19 -103,-35 -52,-15 -107,-38 -122,-49 -34,-26 -165,-181 -183,-216 -7,-14 -18,-52 -25,-85 -19,-99 -20,-100 -34,-78 -7,10 -36,68 -64,128 -27,61 -114,245 -192,410 -78,164 -139,306 -137,315 4,13 317,767 467,1125 71,169 479,1150 506,1217 10,27 22,47 26,45 4,-1 107,-125 228,-276 z m -1774,9 c 17,-72 18,-70 -10,-70 -38,0 -68,-15 -145,-69 -39,-28 -71,-50 -71,-48 0,1 19,47 43,102 48,111 85,149 141,143 27,-3 31,-8 42,-58 z m -280,-311 c -13,-32 -14,-32 -15,-8 -1,14 4,30 11,37 19,19 20,7 4,-29 z m 183,-158 c -35,-89 -67,-161 -71,-161 -14,0 -8,47 6,60 8,6 31,62 52,123 33,102 60,154 72,143 2,-3 -24,-77 -59,-165 z m -11262,-498 c -2,-16 -4,-5 -4,22 0,28 2,40 4,28 2,-13 2,-35 0,-50 z m -18,-227 c -9,-8 -10,6 -5,59 3,39 7,81 8,95 1,14 4,-13 5,-59 3,-55 0,-88 -8,-95 z m -14794,-1001 1224,-1010 v -71 c 1,-39 -37,-1006 -84,-2148 -47,-1141 -85,-2100 -85,-2131 0,-30 -4,-55 -8,-55 -5,0 -555,480 -1223,1066 l -1214,1065 3,157 c 2,160 17,753 52,2187 11,440 24,991 30,1225 5,234 13,503 16,598 l 6,173 29,-23 c 17,-13 581,-477 1254,-1033 z m 4546,504 c 63,-53 182,-154 264,-223 209,-178 742,-628 910,-769 77,-65 190,-160 250,-212 98,-83 325,-275 650,-550 107,-90 516,-435 683,-576 80,-69 82,-71 82,-115 0,-49 -208,-3867 -212,-3896 -2,-13 -431,335 -1490,1210 l -1487,1227 -1,60 c 0,71 157,3793 166,3912 l 6,83 32,-28 c 18,-15 84,-70 147,-123 z m 10250,80 c 14,-48 8,-116 -36,-452 -45,-349 -148,-1157 -230,-1802 -52,-410 -152,-1190 -161,-1259 -6,-43 -9,-47 -33,-44 -22,3 -26,7 -23,33 1,17 42,338 91,715 49,377 104,809 121,960 37,324 73,640 100,870 10,91 40,352 65,580 26,228 48,421 50,427 7,20 49,-1 56,-28 z m 12829,-1123 c 0,-7 -26,-20 -59,-29 -126,-35 -175,-112 -241,-381 l -47,-191 -17,39 c -20,47 -20,43 3,72 11,14 31,77 46,142 15,64 31,134 36,154 6,23 34,65 68,105 53,61 64,69 127,89 72,22 84,22 84,0 z m -70,-583 c -50,-191 -94,-356 -98,-367 -7,-15 -11,-12 -26,23 -18,38 -18,45 -4,89 8,26 41,157 73,292 41,177 64,255 82,282 23,34 54,53 61,37 2,-4 -38,-164 -88,-356 z m -25872,-270 253,-210 4,-209 c 2,-115 13,-306 25,-424 22,-232 47,-498 80,-870 11,-129 29,-325 40,-435 11,-110 22,-243 25,-295 4,-52 10,-124 15,-160 5,-36 14,-128 19,-205 6,-77 20,-232 30,-345 11,-113 29,-315 41,-450 11,-135 32,-351 45,-480 14,-129 22,-257 19,-285 -3,-27 -14,-124 -24,-215 -11,-91 -27,-230 -36,-310 -9,-80 -17,-146 -18,-147 -2,-2 -1038,906 -1074,941 l -23,22 85,2100 c 47,1154 88,2145 92,2201 l 6,103 71,-59 c 40,-33 186,-153 325,-268 z m 14097,-213 c 345,-156 816,-326 1637,-590 486,-156 650,-205 775,-230 1130,-221 1063,-209 1578,-290 359,-56 488,-74 700,-99 50,-6 146,-18 215,-26 570,-68 751,-86 1000,-100 441,-23 471,-25 530,-30 163,-13 375,-20 625,-20 446,0 997,7 1165,15 85,5 229,11 320,14 91,4 203,8 250,11 47,2 153,7 235,11 83,3 254,16 380,29 127,14 298,31 380,40 83,8 177,19 210,25 33,5 193,30 355,55 196,30 362,62 494,96 109,27 200,48 202,46 3,-2 -19,-52 -47,-111 -37,-76 -58,-108 -73,-111 -12,-3 -64,-11 -116,-19 -93,-14 -278,-44 -575,-92 -174,-29 -588,-74 -1365,-149 -91,-9 -403,-19 -839,-26 -705,-11 -758,-10 -1366,26 -44,2 -129,7 -190,10 -60,3 -141,8 -180,10 -38,3 -162,9 -275,15 -285,14 -335,18 -585,45 -121,13 -429,47 -685,75 -749,81 -696,74 -1132,155 -76,14 -198,36 -270,49 -764,140 -677,120 -1298,306 -663,198 -749,225 -1350,429 -304,104 -496,175 -605,225 -88,41 -222,102 -298,137 l -139,63 7,56 c 10,84 13,90 38,81 12,-5 144,-64 292,-131 z m -13715,-153 c 0,-18 9,-117 20,-222 20,-198 57,-592 66,-705 3,-36 11,-128 19,-205 9,-77 19,-196 25,-265 5,-69 16,-192 24,-275 8,-82 24,-258 36,-390 11,-132 28,-305 36,-385 8,-80 19,-203 24,-275 5,-71 16,-193 25,-270 17,-150 20,-365 6,-430 -8,-38 -9,-37 -10,25 0,36 -10,153 -21,260 -10,107 -31,326 -45,485 -14,160 -32,360 -41,445 -8,85 -19,209 -24,275 -8,119 -26,319 -56,616 -8,85 -19,207 -24,270 -8,110 -17,214 -60,659 -22,223 -27,435 -10,425 6,-3 10,-21 10,-38 z m 13448,-106 c 59,-27 148,-68 197,-91 173,-81 260,-119 320,-139 33,-11 274,-92 535,-181 261,-89 772,-250 1135,-360 l 660,-198 525,-96 c 289,-53 570,-105 625,-116 213,-41 279,-50 550,-80 154,-17 339,-37 410,-45 431,-49 964,-104 1050,-109 89,-6 197,-11 585,-31 58,-3 134,-7 170,-10 36,-2 121,-7 190,-11 69,-3 222,-12 340,-19 118,-7 333,-12 478,-10 144,1 262,0 262,-4 0,-3 -31,-89 -69,-191 l -69,-185 -34,3 c -40,4 -1861,206 -4163,463 -935,104 -2355,262 -3155,351 -800,89 -1456,162 -1458,164 -2,1 16,153 39,338 38,297 45,336 60,336 10,0 129,-18 264,-40 276,-45 302,-47 330,-22 38,31 44,48 70,168 34,163 35,164 40,164 3,0 54,-22 113,-49 z m -12478,-645 c 366,-301 674,-557 685,-568 l 20,-21 -24,6 c -25,6 -222,-3 -616,-28 -126,-9 -248,-15 -270,-15 l -40,1 -62,127 c -34,70 -83,172 -109,227 -25,55 -54,118 -65,140 -24,53 -114,280 -139,355 -5,14 -21,57 -35,95 -15,39 -33,88 -40,110 -8,22 -25,73 -39,113 -15,41 -26,76 -26,79 0,7 -36,36 760,-621 z m 4494,492 c 40,-35 230,-196 422,-358 192,-162 455,-384 584,-493 129,-110 286,-242 349,-296 63,-53 151,-127 196,-166 45,-38 249,-211 453,-383 204,-172 373,-316 376,-321 5,-7 -1,-241 -34,-1326 -5,-187 -17,-581 -25,-875 -37,-1263 -54,-1772 -58,-1776 -4,-4 -2487,2038 -2554,2100 -9,9 11,435 92,1931 104,1894 111,2025 122,2025 2,0 37,-28 77,-62 z m -5177,-428 c 29,-80 89,-225 125,-300 17,-36 46,-99 64,-140 18,-41 53,-115 78,-165 l 45,-90 -25,-11 c -53,-22 -69,-73 -93,-284 -13,-107 -29,-247 -37,-310 -8,-63 -20,-170 -26,-237 -12,-125 -28,-165 -28,-70 0,28 -9,138 -19,242 -11,105 -29,288 -40,408 -49,517 -63,663 -82,842 -11,105 -19,208 -18,230 v 40 l 18,-50 c 10,-27 27,-75 38,-105 z m 13703,-680 c 789,-88 2202,-246 3140,-350 938,-104 1847,-206 2020,-225 173,-20 374,-42 445,-50 72,-7 699,-77 1395,-155 696,-78 1362,-152 1480,-165 516,-56 599,-66 665,-74 39,-5 309,-35 600,-67 l 530,-57 30,-29 c 19,-18 24,-28 15,-28 -8,0 -134,14 -280,30 -146,17 -445,50 -665,75 -220,24 -681,76 -1025,115 -344,39 -764,86 -935,105 -876,98 -1592,179 -1870,210 -170,19 -490,55 -710,80 -220,25 -539,60 -710,80 -1065,119 -1608,180 -1960,220 -220,25 -641,72 -935,105 -294,33 -715,81 -935,105 -220,25 -681,77 -1025,115 -344,39 -655,74 -692,77 -57,5 -68,9 -68,24 0,14 7,19 28,19 15,0 673,-72 1462,-160 z m 10834,90 c -37,-67 -42,-57 -7,14 15,31 29,52 31,47 2,-6 -9,-33 -24,-61 z m -264,-55 c 0,-5 -238,-513 -370,-790 -34,-71 -66,-139 -70,-150 -8,-21 -12,-21 -599,45 -324,36 -593,69 -597,72 -3,4 14,55 39,115 138,333 219,518 228,523 5,4 74,12 152,19 286,25 500,52 847,110 195,32 358,59 363,60 4,0 7,-1 7,-4 z m -22495,-429 c -4,-56 -12,-247 -20,-424 -7,-178 -16,-326 -18,-328 -2,-3 -10,53 -16,123 -7,71 -19,184 -27,253 -8,69 -19,168 -24,220 -6,66 -18,117 -38,165 -34,82 -134,284 -165,334 -15,25 24,-3 146,-104 l 167,-138 z m 10462,314 c 142,-16 501,-56 798,-90 297,-33 761,-85 1030,-115 270,-31 551,-62 625,-70 74,-8 176,-20 225,-25 87,-10 997,-113 1640,-185 171,-19 591,-66 935,-105 344,-39 807,-91 1030,-116 223,-25 542,-61 710,-79 549,-62 1548,-174 1865,-210 171,-19 591,-66 935,-105 344,-39 807,-91 1030,-116 223,-25 582,-65 799,-89 217,-25 402,-45 410,-45 43,-1 41,-12 -54,-324 -52,-170 -97,-311 -99,-314 -5,-4 -487,48 -726,79 -41,5 -172,20 -290,34 -736,84 -1830,211 -1945,225 -103,13 -426,50 -820,95 -170,20 -364,42 -430,50 -66,8 -221,26 -345,40 -124,14 -299,34 -390,45 -91,11 -439,51 -775,90 -335,38 -646,75 -690,80 -74,9 -284,34 -820,95 -115,14 -286,33 -380,44 -93,11 -289,34 -435,51 -146,16 -321,37 -390,45 -69,8 -438,51 -820,95 -382,44 -731,84 -775,90 -44,6 -177,21 -295,35 -118,13 -489,56 -825,95 -335,39 -709,82 -830,96 -292,33 -285,32 -285,52 0,9 14,118 30,242 17,124 33,251 37,283 7,69 -23,67 320,27 z m -10889,-38 c 19,-13 48,-181 72,-417 12,-115 30,-286 40,-380 10,-93 21,-199 25,-235 3,-36 14,-141 25,-235 10,-93 28,-264 40,-380 11,-115 29,-289 40,-385 10,-96 28,-267 40,-380 11,-113 25,-241 29,-285 9,-78 -1,-390 -12,-401 -3,-3 -8,39 -12,93 -4,54 -13,152 -21,218 -7,66 -18,172 -24,235 -6,63 -17,174 -25,245 -9,72 -19,177 -24,235 -5,58 -16,173 -25,255 -9,83 -25,242 -36,355 -12,113 -29,276 -39,363 -22,184 -29,197 -100,197 -25,0 -154,9 -286,20 -613,50 -787,62 -798,51 -11,-11 -30,-134 -47,-306 -5,-55 -16,-154 -25,-220 -8,-66 -26,-221 -40,-345 -37,-317 -42,-355 -44,-305 0,22 8,112 19,200 23,188 58,499 65,570 3,28 12,104 20,170 14,111 26,214 86,740 25,221 33,261 57,274 9,5 157,16 327,25 171,10 364,21 430,25 171,11 228,12 243,3 z m 21312,-59 c 0,-4 -34,-88 -76,-188 -60,-141 -165,-392 -168,-402 -1,-2 -750,79 -853,93 -24,3 -43,10 -43,15 0,12 157,420 165,427 3,3 135,9 293,13 260,6 366,13 577,38 98,12 105,12 105,4 z m 2082,-95 c -1,-10 -37,-138 -78,-285 -42,-147 -102,-362 -135,-477 -32,-115 -61,-211 -63,-213 -2,-2 -34,-1 -71,3 -99,10 -99,9 -21,283 146,513 208,726 211,732 3,3 39,-2 82,-10 63,-13 77,-20 75,-33 z M 19420,18775 c 952,-835 1196,-1053 1198,-1074 2,-23 -164,-4163 -170,-4235 -3,-27 -77,37 -1173,1004 -643,567 -1178,1039 -1187,1049 -15,15 -16,43 -8,361 5,190 14,532 20,760 12,465 80,3198 80,3214 0,5 10,0 23,-11 12,-11 560,-492 1217,-1068 z m 23970,1077 c 0,-7 -19,-57 -115,-304 -33,-86 -41,-98 -61,-98 -13,0 -24,2 -24,4 0,2 32,88 70,192 39,104 72,195 75,202 5,13 55,17 55,4 z m 2810,-352 c -54,-190 -103,-364 -109,-387 l -12,-42 -45,34 c -25,19 -50,35 -55,35 -5,0 -9,4 -9,9 0,5 47,110 105,232 58,123 131,279 163,346 31,67 58,120 59,119 1,-1 -42,-157 -97,-346 z m -20941,-982 c 1346,-1112 1476,-1222 1479,-1251 3,-34 -247,-4609 -252,-4614 -2,-2 -696,601 -776,674 -3,3 11,-3 31,-12 42,-20 95,-15 129,13 17,14 24,35 31,97 14,121 -9,226 -86,390 -24,50 -48,106 -54,125 -17,55 -61,113 -126,167 -60,50 -112,105 -139,146 -8,12 -22,78 -30,147 -9,69 -25,195 -36,280 -33,264 -58,468 -80,645 -11,94 -29,238 -40,320 -11,83 -22,177 -26,210 -18,174 -138,405 -237,457 -41,22 -112,49 -227,88 -30,10 -93,32 -140,50 -47,17 -109,38 -137,47 -29,9 -53,19 -53,24 0,4 -16,25 -36,46 -20,21 -51,61 -69,88 -90,136 -132,165 -451,316 -70,33 -65,20 -84,214 -14,143 -46,445 -65,610 -8,72 -20,183 -25,248 -6,64 -15,150 -20,189 -30,209 -30,300 -5,886 14,317 25,589 25,605 0,19 4,26 12,21 6,-4 675,-556 1487,-1226 z m -1764,974 c 3,-42 14,-158 25,-257 11,-99 29,-270 40,-380 12,-110 30,-279 40,-375 35,-329 39,-385 32,-425 -7,-34 -10,-22 -20,85 -7,69 -22,204 -32,300 -11,96 -31,288 -45,425 -14,138 -32,309 -40,380 -8,72 -20,182 -25,245 -6,63 -12,129 -15,145 -4,21 0,15 14,-18 11,-26 22,-82 26,-125 z m -905,-512 c 124,-11 323,-27 443,-36 248,-19 221,-4 236,-134 5,-41 7,-77 5,-79 -2,-2 -39,4 -84,13 -44,9 -99,16 -122,16 -116,0 -620,58 -635,73 -6,7 -20,28 -31,48 -40,72 -47,84 -61,102 -18,22 -29,22 249,-3 z m -290,-155 c 0,-2 11,-21 25,-42 30,-42 29,-55 -5,-333 -26,-208 -55,-448 -79,-658 -60,-506 -95,-799 -116,-972 -9,-69 -20,-165 -26,-214 -5,-49 -11,-91 -12,-93 -2,-1 -24,17 -50,40 l -46,42 19,145 c 10,80 28,228 40,330 12,102 30,257 40,345 19,161 51,437 69,595 6,47 17,144 26,215 23,192 53,446 66,563 l 11,103 19,-31 c 11,-17 19,-32 19,-35 z m 386,-175 c 82,-11 204,-23 272,-26 114,-7 123,-9 126,-28 3,-12 14,-109 26,-216 12,-107 28,-244 35,-305 8,-60 17,-141 21,-180 3,-38 12,-117 20,-175 7,-58 18,-152 24,-210 5,-58 13,-129 16,-159 l 7,-54 -49,26 c -27,14 -96,48 -154,75 -58,28 -170,81 -250,119 -80,39 -154,73 -166,77 -11,3 -30,25 -42,49 -12,23 -33,61 -46,83 -13,23 -51,93 -84,155 l -61,114 10,75 c 5,41 18,147 28,235 11,88 23,189 26,225 13,140 13,140 55,140 21,0 105,-9 186,-20 z m 598,-78 c 5,-9 37,-284 66,-582 12,-118 30,-294 40,-390 11,-96 22,-211 25,-255 4,-44 8,-93 11,-110 3,-24 2,-26 -5,-10 -5,11 -14,70 -20,130 -7,61 -20,184 -31,275 -11,91 -29,248 -40,350 -19,167 -52,448 -66,558 -5,38 6,56 20,34 z m -1257,-699 c -3,-10 -5,-2 -5,17 0,19 2,27 5,18 2,-10 2,-26 0,-35 z m 23846,-39 c 122,-14 224,-27 226,-30 3,-3 -193,-710 -234,-844 -8,-25 -85,-308 -170,-630 -86,-322 -171,-641 -190,-710 -19,-69 -52,-195 -75,-280 -23,-85 -88,-328 -145,-540 -100,-377 -433,-1622 -500,-1870 -19,-69 -81,-303 -139,-520 -181,-679 -190,-710 -198,-702 -4,4 -10,28 -14,52 -4,35 5,83 41,215 25,94 95,355 155,580 60,226 148,554 195,730 47,176 133,496 190,710 57,215 151,566 208,780 58,215 138,512 177,660 39,149 125,468 190,710 116,430 287,1073 338,1267 37,145 37,146 -147,302 -83,69 -153,131 -156,136 -9,14 -2,13 248,-16 z m -23856,-36 c -2,-13 -4,-5 -4,17 -1,22 1,32 4,23 2,-10 2,-28 0,-40 z m -12,-136 c -4,-48 -10,-81 -12,-74 -3,8 -2,53 2,100 4,48 10,81 12,74 3,-8 2,-53 -2,-100 z m 1689,-58 c 4,-43 15,-160 26,-259 11,-99 31,-286 45,-415 14,-129 34,-316 45,-415 11,-99 28,-268 40,-375 53,-507 62,-593 76,-710 8,-69 19,-177 24,-240 5,-63 17,-166 25,-229 8,-63 13,-116 12,-118 -2,-2 -11,5 -20,14 -10,12 -19,56 -27,138 -6,66 -19,197 -30,290 -10,94 -22,202 -25,240 -3,39 -12,122 -20,185 -8,63 -19,165 -24,225 -5,61 -17,173 -25,250 -9,77 -25,230 -36,340 -42,405 -62,594 -81,760 -22,194 -35,451 -20,419 5,-11 12,-56 15,-100 z m -2194,-653 c 135,-118 251,-220 259,-227 11,-10 11,-32 -4,-140 -9,-71 -22,-187 -30,-259 -7,-71 -21,-188 -29,-260 -9,-71 -25,-211 -36,-310 -22,-195 -49,-424 -80,-685 -66,-566 -90,-793 -90,-848 0,-94 50,-180 205,-348 83,-90 90,-95 124,-92 59,5 60,8 110,433 11,94 30,244 40,335 11,91 30,244 41,340 12,96 29,247 40,335 11,88 29,239 40,335 11,96 30,248 42,337 l 21,162 26,-37 c 14,-20 33,-47 41,-58 8,-12 56,-79 105,-149 50,-70 124,-175 165,-234 41,-59 99,-140 128,-181 29,-41 112,-158 183,-260 149,-212 173,-246 275,-390 40,-58 96,-136 122,-175 27,-38 63,-90 81,-115 35,-49 52,-74 136,-195 l 56,-79 -6,-86 c -3,-47 -19,-411 -35,-810 -17,-399 -36,-772 -44,-830 -36,-260 -40,-325 -24,-372 13,-41 12,-100 -8,-569 -13,-288 -24,-547 -26,-574 l -3,-51 -1385,1224 c -762,673 -1397,1234 -1412,1247 l -27,23 88,2138 c 49,1177 89,2140 90,2142 1,2 130,-111 289,-250 158,-139 397,-349 532,-467 z m 487,572 c -3,-10 -5,-2 -5,17 0,19 2,27 5,18 2,-10 2,-26 0,-35 z m 439,8 c 33,-16 104,-50 159,-76 55,-26 163,-78 240,-115 77,-37 181,-87 230,-110 50,-23 154,-73 232,-111 78,-38 146,-69 151,-69 6,0 13,-35 17,-77 5,-71 29,-290 39,-370 l 5,-32 -42,18 c -98,43 -235,103 -272,120 -44,20 -283,125 -330,145 -16,7 -55,24 -85,38 -30,14 -109,49 -175,78 -66,28 -142,62 -170,75 -27,12 -64,28 -82,34 -31,13 -31,13 -27,69 6,72 47,412 50,412 1,0 28,-13 60,-29 z m -449,-78 c -3,-10 -5,-2 -5,17 0,19 2,27 5,18 2,-10 2,-26 0,-35 z m -12,-141 c -4,-48 -10,-81 -12,-74 -3,8 -2,53 2,100 4,48 10,81 12,74 3,-8 2,-53 -2,-100 z m 6130,-1137 c 699,-577 1272,-1049 1273,-1051 2,-1 -1,-155 -7,-341 -6,-186 -18,-570 -26,-853 -29,-1014 -65,-2231 -75,-2555 -5,-181 -14,-501 -20,-710 -6,-209 -12,-389 -13,-401 -2,-16 -289,231 -1322,1138 -725,637 -1329,1168 -1341,1180 l -22,23 128,2315 c 71,1273 129,2317 129,2319 1,5 -119,104 1296,-1064 z m -6148,998 c -3,-10 -5,-2 -5,17 0,19 2,27 5,18 2,-10 2,-26 0,-35 z m -10,-70 c -3,-10 -5,-2 -5,17 0,19 2,27 5,18 2,-10 2,-26 0,-35 z m -13,-130 c -4,-48 -9,-79 -12,-69 -5,24 8,169 15,162 3,-3 2,-45 -3,-93 z m -17,-150 c -3,-10 -5,-2 -5,17 0,19 2,27 5,18 2,-10 2,-26 0,-35 z m 2148,-68 c 102,-50 130,-68 186,-126 84,-86 118,-170 122,-295 3,-117 -14,-132 -101,-93 -327,148 -326,148 -330,195 -2,21 -12,108 -22,192 -11,84 -20,164 -20,177 0,30 -3,30 165,-50 z m -2158,-2 c -3,-10 -5,-4 -5,12 0,17 2,24 5,18 2,-7 2,-21 0,-30 z m 1758,-94 c 3,-46 15,-160 25,-254 24,-222 54,-501 85,-805 23,-218 40,-377 61,-565 l 7,-59 -36,29 c -23,19 -36,39 -36,55 -1,14 -10,104 -20,200 -11,96 -29,270 -41,385 -21,211 -52,520 -70,692 -11,101 -2,460 11,426 4,-11 10,-58 14,-104 z m -1208,-249 c 77,-145 182,-328 234,-408 25,-37 16,-31 -76,50 -76,68 -121,118 -164,183 -34,50 -90,133 -126,185 -37,54 -65,105 -65,120 0,14 5,66 12,117 l 12,91 64,-126 c 35,-70 84,-165 109,-212 z m -560,283 c -3,-10 -5,-4 -5,12 0,17 2,24 5,18 2,-7 2,-21 0,-30 z m 799,-2 c 42,-22 233,-111 239,-111 5,0 140,-63 385,-178 36,-17 100,-46 143,-66 73,-33 77,-37 77,-68 1,-18 5,-78 9,-133 5,-62 3,-213 -5,-400 -7,-165 -14,-303 -14,-308 0,-20 -141,92 -211,168 -75,83 -289,357 -289,371 0,3 -8,17 -19,32 -38,55 -209,339 -251,417 -56,104 -160,305 -160,310 0,7 58,-13 96,-34 z m -809,-133 c -2,-13 -4,-3 -4,22 0,25 2,35 4,23 2,-13 2,-33 0,-45 z m -10,-75 c -3,-10 -5,-4 -5,12 0,17 2,24 5,18 2,-7 2,-21 0,-30 z m 211,-39 c 2,-1 -3,-44 -49,-424 -34,-283 -57,-478 -79,-665 -12,-99 -30,-252 -40,-340 -11,-88 -29,-241 -40,-340 -12,-99 -30,-250 -40,-335 -11,-85 -25,-200 -31,-255 -6,-55 -14,-106 -18,-112 -10,-19 -81,70 -81,101 0,14 9,92 19,173 11,81 29,234 41,338 12,105 28,244 36,310 9,66 21,176 29,245 7,69 21,184 29,255 19,151 47,387 75,635 41,348 53,445 58,468 5,23 6,23 47,-15 22,-21 42,-38 44,-39 z m -221,-36 c -3,-7 -5,-2 -5,12 0,14 2,19 5,13 2,-7 2,-19 0,-25 z m -17,-176 c -7,-64 -15,-111 -18,-104 -2,8 1,66 8,130 7,64 15,111 18,104 2,-8 -1,-66 -8,-130 z m 392,77 c 21,-17 67,-73 100,-123 34,-50 94,-138 132,-195 39,-56 78,-113 86,-125 45,-66 60,-92 60,-103 0,-7 6,-16 14,-20 14,-9 26,-25 167,-232 50,-73 124,-181 165,-240 41,-58 84,-125 95,-148 11,-24 23,-43 27,-43 9,0 68,-85 97,-140 11,-20 28,-45 38,-55 10,-9 38,-47 62,-84 24,-36 80,-119 124,-184 77,-113 81,-122 81,-174 v -55 l -23,29 c -13,15 -48,63 -78,107 -30,43 -66,95 -81,115 -14,20 -61,86 -102,146 -79,113 -96,138 -219,310 -40,55 -95,134 -124,175 -70,101 -131,188 -204,290 -33,47 -71,101 -84,120 -81,115 -203,290 -292,415 l -102,144 6,50 c 3,28 8,51 10,51 3,0 23,-14 45,-31 z m 2438,-13 c 52,-19 111,-40 130,-47 174,-62 220,-82 235,-105 21,-33 28,-75 65,-409 6,-49 19,-157 29,-240 11,-82 29,-229 41,-325 12,-96 30,-239 41,-317 22,-166 22,-166 4,-132 -14,26 -38,177 -54,344 -23,234 -44,360 -62,381 -10,11 -72,44 -138,73 l -119,53 -47,122 c -26,66 -55,144 -65,171 -10,28 -26,70 -35,95 -9,25 -23,63 -30,85 -7,22 -25,72 -40,110 -42,113 -61,175 -52,175 1,0 45,-15 97,-34 z m -208,-199 c -6,-51 -30,-63 -91,-46 l -46,13 41,8 c 25,5 52,20 69,38 16,16 29,29 30,27 1,-1 0,-19 -3,-40 z m -2645,-39 c -3,-7 -5,-2 -5,12 0,14 2,19 5,13 2,-7 2,-19 0,-25 z m 2318,-51 c 99,-49 88,-34 145,-197 10,-30 30,-86 45,-125 14,-38 32,-86 39,-105 8,-19 35,-87 61,-150 26,-63 55,-135 65,-160 50,-131 268,-602 338,-734 7,-12 -5,-5 -111,68 -49,34 -100,68 -113,76 -123,78 -264,178 -268,190 -3,8 -28,51 -55,95 -45,74 -185,310 -222,375 -9,17 -22,91 -33,191 -9,90 -26,239 -37,330 -10,92 -19,181 -19,199 v 31 l 38,-19 c 20,-11 77,-40 127,-65 z m -2335,-119 c -8,-67 -15,-117 -18,-109 -6,17 19,243 26,237 3,-3 -1,-61 -8,-128 z m 1015,-104 c 6,-10 18,-28 27,-39 9,-11 52,-67 94,-125 43,-58 94,-123 113,-144 98,-108 157,-167 234,-231 80,-67 85,-73 107,-140 12,-38 42,-110 66,-160 42,-89 43,-91 37,-168 -6,-75 -6,-77 -22,-53 -16,23 -41,61 -329,482 -230,337 -254,373 -380,557 -67,97 -122,180 -122,184 0,10 164,-143 175,-163 z m 1634,4 c 24,-62 52,-138 63,-168 23,-63 47,-124 76,-195 11,-27 30,-77 42,-110 13,-33 31,-80 41,-105 10,-25 30,-76 44,-115 14,-38 32,-83 40,-100 50,-107 104,-239 100,-243 -2,-3 -13,15 -23,39 -11,24 -43,92 -71,152 -28,59 -51,110 -51,112 0,3 -17,42 -39,88 -21,45 -48,105 -59,132 -83,196 -112,267 -112,275 0,5 -9,29 -20,52 -30,67 -92,230 -100,266 -7,26 -5,32 9,32 12,0 29,-31 60,-112 z m -2672,-70 c -3,-8 -6,-5 -6,6 -1,11 2,17 5,13 3,-3 4,-12 1,-19 z m -17,-173 c -7,-64 -15,-113 -18,-110 -3,2 1,57 8,120 7,64 15,114 17,111 3,-3 0,-57 -7,-121 z m 1846,-47 c 19,-145 19,-151 -6,-136 -18,12 -20,24 -20,132 0,66 3,117 6,113 3,-3 12,-52 20,-109 z m -4318,-1111 c 629,-555 1146,-1017 1150,-1025 6,-16 -126,-3327 -133,-3349 -3,-7 -11,-13 -20,-13 -8,0 -56,-13 -107,-29 -90,-27 -146,-44 -502,-152 l -169,-51 -36,34 c -20,19 -131,124 -246,234 -116,109 -370,350 -565,535 -195,184 -430,407 -522,494 l -168,159 v 110 c 0,61 7,372 15,691 14,552 27,1069 60,2405 8,327 18,693 21,812 l 7,218 36,-32 c 20,-17 550,-486 1179,-1041 z m 2449,981 c -3,-8 -6,-5 -6,6 -1,11 2,17 5,13 3,-3 4,-12 1,-19 z m -10,-95 c -3,-10 -5,-2 -5,17 0,19 2,27 5,18 2,-10 2,-26 0,-35 z m -12,-120 c -4,-41 -9,-72 -12,-69 -3,3 -2,42 2,88 5,46 10,77 13,70 2,-8 1,-47 -3,-89 z m 1925,11 c 0,-11 -10,-7 -35,12 -19,14 -35,30 -35,35 0,5 16,-1 35,-12 19,-12 35,-28 35,-35 z m -131,-16 c -1,-41 -1,-42 -11,-15 -5,15 -7,34 -4,42 10,27 16,16 15,-27 z m 1521,16 c 17,-44 10,-61 -10,-24 -22,40 -24,50 -10,50 6,0 15,-12 20,-26 z m -1420,-65 c 42,-34 44,-40 54,-187 6,-87 0,-86 -64,12 -37,57 -40,66 -40,133 0,40 3,73 6,73 3,0 23,-14 44,-31 z m 553,-169 c 4,-8 18,-33 31,-55 14,-22 42,-69 62,-105 20,-36 42,-72 49,-80 7,-8 26,-40 42,-70 16,-30 41,-73 55,-95 14,-22 31,-51 38,-65 13,-24 12,-24 -6,-10 -91,71 -195,173 -224,220 -19,31 -40,65 -47,76 -65,103 -70,118 -77,219 l -6,100 38,-60 c 21,-33 41,-67 45,-75 z m -2466,78 c -3,-7 -5,-2 -5,12 0,14 2,19 5,13 2,-7 2,-19 0,-25 z m -10,-70 c -3,-7 -5,-2 -5,12 0,14 2,19 5,13 2,-7 2,-19 0,-25 z m 2126,-15 c 28,-31 26,-15 78,-528 20,-198 42,-419 79,-775 11,-102 28,-275 40,-385 53,-520 62,-612 80,-775 11,-96 22,-209 25,-250 4,-41 13,-129 21,-195 8,-66 18,-169 23,-230 6,-60 17,-175 25,-255 9,-80 25,-233 36,-340 11,-107 30,-280 41,-385 12,-104 20,-203 18,-220 -4,-29 -5,-29 -37,27 -31,53 -35,71 -52,225 -40,353 -51,462 -59,563 -5,58 -16,173 -25,255 -22,205 -55,534 -115,1133 -58,577 -94,922 -116,1132 -9,80 -22,213 -30,297 -8,83 -21,218 -30,300 -8,81 -20,195 -25,253 -6,58 -14,122 -17,143 -7,44 4,47 40,10 z m -2138,-113 c -4,-45 -9,-79 -12,-76 -3,3 -2,41 2,86 4,45 9,79 12,76 3,-3 2,-41 -2,-86 z m 2336,-206 c 10,-88 28,-249 39,-359 12,-110 32,-299 45,-420 13,-121 33,-307 45,-413 32,-304 59,-562 81,-767 43,-407 59,-557 79,-745 19,-182 29,-282 81,-765 11,-104 29,-266 39,-360 11,-93 24,-224 30,-290 6,-66 13,-128 16,-137 4,-13 1,-16 -9,-12 -28,10 -46,80 -62,234 -9,85 -24,238 -35,340 -11,102 -28,273 -39,380 -39,381 -62,598 -86,830 -13,129 -34,327 -45,440 -12,113 -30,291 -40,395 -11,105 -29,280 -40,390 -12,110 -30,288 -41,395 -11,107 -29,283 -40,390 -11,107 -28,276 -39,375 -27,248 -29,288 -11,271 8,-9 20,-74 32,-172 z m -360,-18 c -6,-44 -11,-83 -11,-88 0,-18 -21,5 -61,65 -36,55 -40,67 -35,106 3,24 6,59 6,77 v 34 l 56,-58 55,-57 z m 1238,104 c 11,-24 11,-24 -3,-6 -9,11 -16,24 -16,30 0,12 5,7 19,-24 z m -3232,-22 c -3,-7 -5,-2 -5,12 0,14 2,19 5,13 2,-7 2,-19 0,-25 z m -10,-70 c -3,-7 -5,-2 -5,12 0,14 2,19 5,13 2,-7 2,-19 0,-25 z m 2943,-73 c 25,-19 52,-38 60,-42 8,-4 35,-21 60,-38 171,-119 204,-141 224,-152 27,-15 72,-71 111,-138 31,-54 118,-174 156,-216 13,-14 48,-54 77,-88 l 54,-62 -44,29 c -53,36 -129,84 -231,148 -43,27 -107,68 -143,92 -35,23 -67,42 -70,42 -21,0 -107,83 -130,125 -15,28 -51,89 -81,136 -58,95 -123,208 -123,215 0,7 29,-12 80,-51 z m -2955,-60 c -4,-48 -9,-84 -12,-81 -3,2 -2,43 2,91 4,47 10,84 12,81 3,-3 2,-44 -2,-91 z m 2958,-263 c 23,-41 47,-81 52,-90 32,-53 82,-139 88,-152 4,-8 30,-51 57,-95 26,-44 65,-109 86,-145 21,-35 78,-132 127,-215 49,-82 98,-165 108,-182 11,-18 27,-48 38,-65 10,-18 47,-80 81,-138 34,-58 72,-121 83,-140 11,-19 27,-47 36,-62 9,-14 34,-57 55,-95 21,-37 44,-75 51,-83 12,-14 32,-120 22,-120 -4,0 -67,98 -67,105 0,2 -17,30 -37,62 -21,32 -44,67 -50,78 -7,11 -36,58 -65,105 -29,46 -55,89 -58,95 -3,5 -21,35 -40,66 -19,30 -40,64 -47,75 -6,10 -90,145 -185,299 -95,153 -177,287 -183,297 -5,10 -71,115 -145,235 -74,119 -137,221 -140,227 -3,6 -22,37 -42,69 -21,31 -38,61 -38,66 0,5 -7,14 -15,21 -8,7 -15,17 -15,22 0,5 45,-31 100,-79 79,-69 110,-104 143,-161 z m -987,114 c 21,-32 56,-84 77,-115 30,-43 37,-62 33,-85 -3,-16 -6,-35 -6,-44 0,-16 -31,24 -122,158 -53,77 -58,89 -58,139 v 54 l 18,-24 c 10,-13 36,-50 58,-83 z m -1989,2 c -3,-7 -5,-2 -5,12 0,14 2,19 5,13 2,-7 2,-19 0,-25 z m 2579,-11 c 16,-18 49,-65 74,-106 25,-40 57,-91 71,-114 97,-153 229,-370 229,-376 0,-4 9,-16 20,-26 11,-10 20,-22 20,-26 0,-5 26,-49 58,-98 31,-50 64,-102 73,-118 10,-15 49,-79 88,-141 39,-63 71,-115 71,-117 0,-2 17,-30 38,-62 21,-32 56,-86 78,-121 21,-35 60,-97 87,-137 26,-41 47,-77 47,-79 0,-3 17,-31 38,-63 21,-32 42,-65 45,-73 4,-8 38,-64 76,-123 66,-103 69,-111 75,-185 4,-42 15,-140 26,-217 23,-173 60,-456 65,-510 3,-22 13,-110 24,-195 11,-85 30,-231 41,-325 20,-161 29,-231 80,-640 11,-93 29,-237 40,-320 19,-148 42,-333 80,-635 71,-576 69,-564 100,-632 28,-63 112,-175 201,-266 69,-70 74,-73 113,-70 l 41,3 -2,95 c -1,52 -11,163 -23,245 -11,83 -27,202 -36,265 -9,63 -20,153 -24,200 -5,47 -16,132 -24,190 -8,58 -24,184 -36,280 -11,96 -27,220 -35,275 -8,55 -18,127 -21,160 -3,33 -14,123 -24,200 -27,196 -60,452 -65,500 -2,22 -13,108 -24,190 -11,83 -30,227 -41,320 -12,94 -27,215 -35,270 -8,55 -17,125 -20,155 -6,52 -19,158 -65,515 -10,83 -28,224 -40,315 -11,91 -27,212 -35,270 -8,58 -20,148 -25,200 -6,52 -13,113 -17,135 l -6,39 46,-39 c 25,-22 224,-195 441,-385 l 395,-345 v -60 c 1,-87 -226,-4195 -232,-4201 -3,-4 -2734,2398 -2854,2510 -10,9 -7,129 12,571 14,308 25,561 25,563 0,1 30,-31 66,-73 84,-96 143,-128 172,-92 10,12 32,144 72,442 12,83 30,211 40,285 37,261 52,366 60,433 4,38 10,70 13,73 3,3 8,-37 11,-88 4,-51 16,-172 26,-268 19,-177 44,-418 81,-785 11,-110 26,-258 34,-330 8,-71 17,-164 20,-205 4,-41 14,-151 25,-245 10,-93 24,-226 30,-295 15,-168 24,-204 71,-282 59,-101 252,-337 301,-369 48,-32 99,-37 119,-12 16,19 16,145 -1,246 -5,34 -17,139 -25,232 -9,94 -20,197 -25,230 -5,33 -11,96 -15,140 -3,44 -13,136 -21,205 -9,68 -19,170 -24,225 -5,55 -16,165 -24,245 -27,248 -55,507 -76,710 -57,539 -98,925 -120,1125 -11,94 -22,202 -25,240 -4,39 -13,122 -21,185 -7,63 -19,171 -24,240 -6,69 -13,133 -16,143 -8,27 11,20 42,-16 z m -2589,-59 c -3,-8 -6,-5 -6,6 -1,11 2,17 5,13 3,-3 4,-12 1,-19 z m 1952,-185 c 37,-56 41,0 -38,-583 -11,-80 -23,-178 -27,-218 -4,-40 -8,-71 -10,-69 -2,1 6,198 16,437 11,239 20,445 20,458 0,12 2,22 4,22 2,0 18,-21 35,-47 z m 2038,-266 c 23,-18 43,-37 43,-44 1,-45 -65,1 -146,102 -73,92 -74,94 -4,32 36,-32 84,-73 107,-90 z m -1913,-89 c -9,-65 -19,-116 -22,-113 -3,2 0,39 6,82 6,43 15,105 19,138 4,37 8,51 11,35 2,-14 -4,-78 -14,-142 z m 1356,52 c 30,-20 83,-54 117,-76 62,-39 62,-39 68,-94 10,-103 27,-235 32,-260 4,-21 2,-20 -18,10 -12,19 -36,60 -52,90 -16,30 -36,62 -43,70 -7,8 -17,26 -23,40 -6,14 -31,58 -56,98 -25,41 -45,80 -45,87 0,8 -4,16 -10,20 -5,3 -19,20 -32,37 -12,17 -15,28 -7,23 7,-5 39,-26 69,-45 z m -1245,-222 c -4,-40 -17,-149 -31,-243 -22,-160 -36,-260 -85,-615 -11,-80 -28,-206 -39,-280 -11,-74 -24,-175 -30,-225 -6,-49 -16,-112 -22,-138 -18,-86 -21,-41 -5,70 9,60 26,178 37,263 12,85 30,216 40,290 11,74 29,205 40,290 12,85 30,216 40,290 11,74 24,173 30,220 14,112 21,150 27,150 3,0 2,-33 -2,-72 z m -140,-55 c -4,-36 -9,-62 -12,-59 -3,3 -2,40 2,83 5,43 10,69 13,59 2,-10 1,-48 -3,-83 z m -18,-110 c -3,-10 -5,-4 -5,12 0,17 2,24 5,18 2,-7 2,-21 0,-30 z m -10,-65 c -3,-7 -5,-2 -5,12 0,14 2,19 5,13 2,-7 2,-19 0,-25 z m -1733,-1221 c 754,-665 1375,-1214 1380,-1218 6,-5 -20,-8 -60,-7 -54,1 -90,-5 -164,-29 -84,-28 -648,-198 -805,-243 -33,-9 -116,-34 -185,-55 -69,-21 -159,-48 -200,-60 -175,-52 -532,-159 -615,-184 -49,-16 -133,-41 -185,-56 -52,-15 -135,-40 -185,-56 -225,-69 -506,-151 -509,-148 -2,3 130,3262 133,3277 2,8 99,-77 1395,-1221 z m 1721,1106 c -5,-43 -10,-69 -13,-59 -5,24 8,149 15,142 3,-3 2,-40 -2,-83 z m -18,-120 c -3,-10 -5,-4 -5,12 0,17 2,24 5,18 2,-7 2,-21 0,-30 z m -10,-65 c -3,-7 -5,-2 -5,12 0,14 2,19 5,13 2,-7 2,-19 0,-25 z m -12,-103 c -4,-36 -10,-64 -12,-61 -3,2 -2,34 2,71 4,36 10,64 12,61 3,-2 2,-34 -2,-71 z m -18,-117 c -3,-8 -6,-5 -6,6 -1,11 2,17 5,13 3,-3 4,-12 1,-19 z m -22,-183 c -4,-36 -10,-64 -12,-61 -3,2 -2,34 2,71 4,36 10,64 12,61 3,-2 2,-34 -2,-71 z m -18,-112 c -3,-10 -5,-4 -5,12 0,17 2,24 5,18 2,-7 2,-21 0,-30 z m 4354,-1133 c 728,-638 1330,-1160 1339,-1160 14,0 16,-11 13,-82 -2,-46 -10,-321 -18,-613 -18,-626 -38,-1309 -65,-2230 -11,-368 -24,-843 -30,-1055 -6,-212 -12,-393 -13,-403 -1,-12 -433,363 -1394,1210 -765,676 -1393,1233 -1395,1238 -3,7 227,4236 231,4253 1,1 3,2 6,2 2,0 599,-522 1326,-1160 z m -4374,973 c -3,-10 -5,-4 -5,12 0,17 2,24 5,18 2,-7 2,-21 0,-30 z m -10,-70 c -3,-10 -5,-2 -5,17 0,19 2,27 5,18 2,-10 2,-26 0,-35 z m 2073,-31 c 0,-18 9,-99 19,-180 19,-145 40,-311 81,-647 11,-93 30,-242 41,-330 38,-306 59,-471 79,-635 11,-91 27,-219 36,-285 8,-66 21,-174 29,-240 7,-66 20,-176 29,-245 9,-69 25,-201 37,-295 11,-93 29,-236 40,-317 24,-176 22,-202 -10,-134 -15,34 -27,88 -37,170 -8,67 -21,173 -29,236 -14,109 -29,230 -76,605 -11,88 -28,230 -39,315 -10,85 -29,232 -40,325 -45,364 -89,718 -119,955 -11,85 -32,247 -46,360 -42,342 -46,374 -51,392 -5,17 -4,17 25,0 25,-13 31,-24 31,-50 z m -2083,-39 c -3,-10 -5,-4 -5,12 0,17 2,24 5,18 2,-7 2,-21 0,-30 z m -157,-1411 c 0,-34 -3,-43 -10,-32 -13,20 -13,93 0,85 6,-3 10,-27 10,-53 z m 1512,-1291 c 774,-682 1409,-1244 1411,-1248 6,-11 -247,-4590 -254,-4597 -5,-6 -49,35 -574,534 -154,146 -356,337 -450,425 -93,88 -343,324 -555,525 -799,757 -1105,1047 -1164,1101 l -60,56 92,2159 c 77,1791 95,2161 107,2170 12,9 12,13 -1,26 -12,12 -14,27 -9,72 l 7,57 22,-19 c 11,-10 654,-578 1428,-1261 z m -1606,-994 c -48,-1112 -89,-2050 -92,-2085 l -6,-62 -24,19 c -19,15 -593,556 -739,696 -31,30 -302,286 -445,420 -100,95 -408,386 -660,625 -113,107 -363,344 -555,526 -193,182 -358,340 -367,351 -16,18 -16,39 -3,343 8,179 15,337 15,352 0,25 6,29 58,44 31,9 113,33 182,54 69,21 181,55 250,75 69,21 159,48 200,60 41,13 129,39 195,59 66,19 197,58 290,86 94,28 208,63 255,77 47,13 119,35 160,48 41,13 131,40 200,60 69,20 159,47 200,60 41,13 154,47 250,75 96,28 216,64 265,79 50,16 133,41 185,56 52,15 133,40 180,55 l 85,27 3,-39 c 2,-21 -35,-949 -82,-2061 z m -2945,871 c -6,-136 -11,-264 -11,-284 v -36 l -162,153 c -262,245 -338,320 -338,327 0,7 78,32 290,93 36,11 101,30 145,43 l 80,24 3,-37 c 2,-20 -1,-147 -7,-283 z m 7429,-2417 1375,-1214 3,-61 c 3,-65 0,-193 -83,-3001 -8,-280 -22,-748 -30,-1040 -8,-291 -17,-590 -21,-662 l -6,-133 -42,38 c -23,20 -130,120 -237,222 -224,213 -635,601 -919,870 -107,101 -280,266 -385,365 -104,100 -264,251 -355,336 -91,85 -343,323 -560,528 -217,206 -397,376 -399,378 -4,2 233,4372 246,4536 5,68 8,76 22,65 8,-7 634,-559 1391,-1227 z"
       id="path4"
       inkscape:connector-curvature="0" />
  </g>
  <g
     inkscape:groupmode="layer"
     id="layer1"
     inkscape:label="Layer 1"
     transform="translate(5.7579558,9.2215397)" />
</svg>
